<?xml version="1.0" encoding="UTF-8"?><svg id="Layer_2" xmlns="http://www.w3.org/2000/svg" viewBox="0 0 1095.65 104.32"><defs><style>.cls-1{fill:#fff;}.cls-2{fill:#c2e5dd;}.cls-3{fill:#112646;}</style></defs><g id="Layer_1-2"><g id="Layer_1-2"><g><path class="cls-2" d="M164.07,90.87h3.6c4.97,0,8.99-4.02,8.99-8.99V37.11c0-5.65-4.58-10.22-10.22-10.22h-2.37v-.43h30.49l16.97,49.9s3.65-2.8,5.85-19.69c2.21-16.88,6.79-30.21,10.02-30.21h21.98v.6h-.8c-4.89,0-8.86,3.97-8.86,8.86v44.29c0,5.88,4.77,10.65,10.65,10.65h1.23v1.1h-35.3v-1.1h2.08c5.88,0,10.65-4.77,10.65-10.65V41.15l-16.71,39.28c-11.8,0-13.66-2.8-15.53-9.5-1.87-6.71-7.63-22.83-10.6-28.85s-7.81-4.24-7.81,4.84,0-3.05,0,10.27,7.89,24.53,9.33,28.17-2.3,6.19-6.02,6.19h-17.61v-.68Z"/><path class="cls-2" d="M249.38,26.47h38.66v.6h-3.77c-5.39,0-8.86,5.74-6.34,10.52l8.76,16.62c2.55,4.85,9.48,4.91,12.12,.1l2.13-3.88c2.17-3.75,2.75-13.5,1.11-18.78h0c-1.47-2.21,.11-5.17,2.77-5.17h22.8v.93h-.59c-7.06,0-13.54,3.88-16.87,10.1l-18.04,35.72c-4.07,8.05,1.78,17.57,10.8,17.57h0v1.27h-27.91l16.71-23.84h-10.52l-17.12-32.31c-2.88-5.44-8.55-8.85-14.7-8.85h0v-.6h-.01Z"/><path class="cls-2" d="M368.29,29.41s-.06,13.3-11.03,13.3c-8.6,0-9.4-16.2-18.34-16.2s-10.4,14.33-.84,20.61c9.56,6.28,21.22,13.74,26.7,18.72,2.47,2.24,4.77,7.88,3.51,13.41-1.54,6.78-8.31,13.41-21.36,13.41-11.14,0-20.33-5.15-24.92-5.15-5.82,0-7.46,2.54-7.46,2.54,0,0,.06-13.8,10.4-13.8s7.95,14.54,21.98,14.54c11.79,0,11.4-16.68,2.35-22-9.05-5.32-19.06-9.56-24.27-17.2s-1.57-26.6,13.58-26.6c12.73,0,22.8,9.73,29.7,4.41Z"/><path class="cls-2" d="M372.17,50.06h-.77V26.13h54.65v23.93h-.84v-1.27c-1.78-10.94-11.89-20.71-20.71-20.71h-.43v26.98c0,13.33-9.59,13.66-9.59,19.01s9.25,12.13,10.6,13.91,.09,3.57-4.67,3.57h-19.85v-.93h.19c6.69,0,12.12-5.42,12.12-12.12V28.08h0c-10.52,.84-19.85,10.52-20.71,19.85v2.13h0Z"/><path class="cls-2" d="M516.59,59.73c-23.42-2.63-25.89-11.72-27.33-21.22-1.44-9.5-10.1-15.18-17.22-8.23-7.12,6.95-9.16,30.58,4.75,44.26,13.91,13.68,34.39,9.28,41.98,0,0,0-7.46,18.76-28.05,18.76s-33.72-17.18-33.72-37.2,9.38-31.45,26.13-31.45,18.55,10.3,19.35,20.36c.8,10.06,14.11,14.71,14.11,14.71Z"/><path class="cls-2" d="M595.31,73.26c.07,.43,.07,.86,.07,1.28,0,15.41-13.9,18.78-23.29,18.78-20.61,0-32.25-17.2-31.31-37.23,.93-19.99,9.77-31.42,24.12-31.42,9.32,0,19.85,14.37,32.54,5.98,.33,4.27-1.47,8.28-3.62,11.53-3.3,4.84-10.32,5.48-14.16,1-1.33-1.54-2.61-3.37-3.72-5.52-4.44-8.56-12.12-14.37-19.24-7.38-7.13,6.95-10.57,31.28,3.37,44.96,9.06,8.92,20.68,10.75,30.35,7.78,4.37-1.36-2.58-6.99-6.24-10.75-2.44-2.5-2.46-2.53-.07-.07-2.58-2.54-6.09-5.38-6.09-10.32s7.92-9.96,12.9-9.75c-5.84,5.84-.5,9.96,2.58,15.23,.07,.11,.14,.21,.21,.36,.33,.61,.64,1.26,.9,1.94,.11,.29,.21,.57,.29,.86,.11,.4,.21,.78,.29,1.21,.07,.4,.11,.78,.11,1.18,.04,.11,.04,.21,.04,.33h-.03Z"/><path class="cls-2" d="M667.81,90.5c-5.85,0-11.02-3.78-12.8-9.33l-17.67-55.04h-13.58l-19.09,54.3c-2.13,6.04-7.82,10.07-14.23,10.07h-2v1.3h22.92c2.45,0,4.58-5.27,5.01-13.16,.13-2.3,.11-6.76,.26-11.9h20.15c1.83,5.75,3.58,11.24,4.94,15.5,1.3,4.1-1.76,8.26-6.06,8.26h-2.23v1.3h34.36c.26,0,0-1.3,0-1.3h.03Zm-51.1-25.74c.44-12.3,1.91-27.4,8.08-27.4,2.91,0,4.52,5.75,6.88,13.2,1.41,4.45,2.97,9.38,4.51,14.2h-19.46Z"/><path class="cls-2" d="M718.7,74.33c-9.75-13.11-26.47-11.32-26.47-11.32,0,0,31.68-13.11,31.68-23.17s-12.12-13.68-24.76-13.68h-34.96v1h3.65c4.79,0,8.7,3.91,8.7,8.7v45.92c0,2.44-.97,4.58-2.54,6.16s-3.77,2.54-6.16,2.54v1.33h25.54s-14.8-13.87-14.8-17.2,1.76-9.82,10.46-9.82,11.67,4.65,16.3,13.04c4.65,8.35,10.53,13.97,19.24,13.97h8.02v-.86c-3.37,0-4.2-3.51-13.9-16.62h0Zm-30.49-11.93v-24.04c0-4.87,1.87-10.53,10.75-10.53s13.58,6.85,13.58,12.04-11.69,16.74-24.33,22.53Z"/><path class="cls-2" d="M434.74,87.94c-1.57,1.57-4.02,2.54-9.82,2.54v1.33h35.8v-1.33h0c-6.49,0-11.77-5.27-11.77-11.77V38.34c0-4.84,1.87-10.53,10.75-10.53l.19-1.68h-34.96v1h3.65c4.81,0,8.7,3.9,8.7,8.7v45.95c0,2.44-.97,4.58-2.54,6.16Z"/><path class="cls-2" d="M763.69,26.14h-33.53v1.18c6.95,0,12.57,5.62,12.57,12.54v40.95c0,2.8-1.14,5.34-2.97,7.16s-4.37,2.97-7.16,2.97v.86h34.5c24.33,0,30.71-16.91,30.71-35.65s-13.21-30.02-34.1-30.02h-.01Zm3.98,63.34c-11.53,0-23.55-20.25-23.55-29.74,0-18.71,13.83-31.82,22.75-31.82s19.45,16.41,19.45,31.82-7.13,29.74-18.66,29.74h.01Z"/><path class="cls-2" d="M858.3,30.88s-.8,15.15-11.43,15.15-10.4-19.35-22.29-19.35-22.75,27.73-4.64,47.63c18.11,19.91,37.44,4.41,40.95,.8l.8,.9s-6.45,16.64-27.38,16.64-33.49-15.73-33.49-36.09,11.54-32.02,23.66-32.02,19.24,17.42,33.83,6.34h-.01Z"/><path class="cls-2" d="M811.24,61.77s2.98-6.85,9.2-6.85,11.84,16.14,21.01,16.14,12.79-10.75,12.79-10.75l-.8-1.31c-7.35,7.96-18.64-9.43-28.82-9.43-12.56,0-16.44,14.48-16.44,14.48l3.05-2.27h.01Z"/><path class="cls-2" d="M855.59,26.13h26.36l28.51,50.64c1.67,2.97,6.19,1.78,6.19-1.63v-12.39c0-3.62-.68-7.22-2-10.6l-7.02-19.22c-1.21-3.31,1.24-6.81,4.77-6.81h18.68v1.44h-5.24c-4,0-7.22,3.24-7.22,7.22v45.09c0,5.96,4.84,10.82,10.82,10.82h1.18v.71h-19.04c-3.67,0-7.08-1.91-8.98-5.05l-27.2-44.82c-1.34-2.35-4.92-1.41-4.95,1.28l-.1,10.56c-.04,5.09,.84,10.16,2.6,14.94l6.61,17.89c.94,2.54-.91,5.24-3.62,5.28l-20.33,.31v-.93h3.31c5.15,0,9.33-4.18,9.33-9.33V37.8c0-5.59-4.54-10.15-10.15-10.15h-2.5v-1.53h-.01Z"/></g></g><g><g><path class="cls-2" d="M131.78,61.78s-26.84,29.79-59.94,29.79S11.9,61.78,11.9,61.78c0,0,26.84-29.79,59.94-29.79s59.94,29.79,59.94,29.79Z"/><path class="cls-3" d="M71.84,92.83c-33.28,0-60.6-29.9-60.87-30.21l-.76-.84,.76-.84c.27-.3,27.59-30.21,60.87-30.21s60.6,29.91,60.87,30.21l.76,.84-.76,.84c-.27,.3-27.6,30.21-60.87,30.21ZM13.63,61.78c4.66,4.81,29.17,28.54,58.21,28.54s53.55-23.73,58.21-28.54c-4.66-4.81-29.17-28.54-58.21-28.54S18.29,56.97,13.63,61.78Z"/></g><g><path class="cls-1" d="M120.97,61.78c-5.85,5.25-16.22,13.36-28.77,18.23-6.33,2.44-13.21,4.04-20.36,4.04s-14.04-1.61-20.36-4.07c-12.55-4.85-22.9-12.96-28.77-18.2,5.77-5.17,15.94-13.13,28.25-18,6.48-2.54,13.53-4.24,20.89-4.24s14.41,1.71,20.89,4.24c12.3,4.87,22.47,12.83,28.25,18h-.02Z"/><path class="cls-3" d="M71.83,85.31c-6.73,0-13.73-1.4-20.82-4.15-12.4-4.78-22.7-12.67-29.15-18.44l-1.05-.94,1.05-.93c6.3-5.64,16.38-13.39,28.62-18.23,7.34-2.87,14.52-4.33,21.35-4.33s14.01,1.46,21.35,4.33c12.24,4.85,22.32,12.59,28.63,18.24l1.04,.93-1.04,.93c-5.24,4.71-16,13.36-29.16,18.47-7.12,2.74-14.12,4.13-20.82,4.13h0ZM24.59,61.78c6.34,5.52,15.94,12.63,27.33,17.03,6.79,2.65,13.49,3.98,19.91,3.98s13.09-1.33,19.91-3.96c11.96-4.64,21.91-12.33,27.33-17.06-5.34-4.65-15.11-12.2-26.81-16.83-7.04-2.76-13.91-4.15-20.43-4.15s-13.39,1.4-20.43,4.16c-11.69,4.63-21.47,12.18-26.81,16.83h0Z"/></g><g><path class="cls-3" d="M96.89,61.4c0,6.93-1.76,13.36-4.7,18.6-6.33,2.44-13.21,4.04-20.36,4.04s-14.04-1.61-20.36-4.07c-2.96-5.25-4.7-11.65-4.7-18.58,0-6.5,1.53-12.58,4.17-17.63,6.48-2.54,13.53-4.24,20.89-4.24s14.41,1.71,20.89,4.24c2.64,5.05,4.17,11.12,4.17,17.63h0Z"/><path class="cls-3" d="M71.83,85.31c-6.73,0-13.73-1.4-20.82-4.15l-.42-.16-.22-.39c-3.18-5.63-4.86-12.26-4.86-19.2,0-6.51,1.49-12.81,4.31-18.21l.22-.42,.44-.17c7.34-2.87,14.52-4.33,21.35-4.33s14.01,1.46,21.35,4.33l.44,.17,.22,.42c2.82,5.4,4.31,11.7,4.31,18.21,0,6.9-1.68,13.54-4.85,19.22l-.22,.39-.42,.16c-7.11,2.74-14.11,4.12-20.81,4.12h-.02Zm-19.49-6.32c6.65,2.54,13.2,3.82,19.49,3.82s12.81-1.28,19.48-3.8c2.83-5.21,4.32-11.29,4.32-17.59,0-5.94-1.32-11.68-3.81-16.63-6.89-2.64-13.61-3.98-19.99-3.98s-13.1,1.34-19.99,3.98c-2.49,4.95-3.81,10.69-3.81,16.63,0,6.34,1.49,12.4,4.32,17.57h-.01Z"/></g><path class="cls-2" d="M71.12,78.42c-1.92-8.09-4.41-15.58-10.38-17.33,6.83-2.43,9.07-8.66,10.38-15.61,.15-.79,1.3-.79,1.45,0,1.31,6.94,3.54,13.18,10.38,15.61-5.97,1.76-8.46,9.25-10.38,17.33-.18,.76-1.25,.76-1.43,0h-.02Z"/></g><g><path class="cls-2" d="M72.43,0c1.05,1.95,1.57,3.9,1.97,5.86,.37,1.95,.54,3.9,.54,5.86s-.17,3.9-.54,5.86c-.4,1.95-.92,3.9-1.97,5.86-1.05-1.95-1.58-3.9-1.97-5.86-.37-1.95-.54-3.9-.54-5.86s.17-3.9,.54-5.86c.4-1.95,.92-3.9,1.97-5.86Z"/><path class="cls-2" d="M88.01,25.81c-.38-2.09-.27-4-.05-5.88,.26-1.87,.7-3.67,1.3-5.41,.6-1.75,1.37-3.44,2.32-5.06,.98-1.62,2.08-3.19,3.68-4.59,.39,2.09,.28,4.01,.05,5.88-.26,1.87-.7,3.67-1.31,5.41s-1.37,3.43-2.33,5.06c-.98,1.61-2.08,3.19-3.67,4.59h.01Z"/><path class="cls-2" d="M116.79,15.33c-.23,2.02-.88,3.73-1.62,5.36-.77,1.61-1.69,3.1-2.75,4.49-1.06,1.39-2.25,2.67-3.61,3.84-1.38,1.15-2.85,2.22-4.75,2.97,.22-2.03,.87-3.73,1.61-5.36,.77-1.61,1.69-3.1,2.76-4.49,1.06-1.39,2.26-2.67,3.61-3.84,1.38-1.15,2.85-2.22,4.74-2.97h.01Z"/><path class="cls-2" d="M119.46,41.98c.49-1.71,1.31-3,2.2-4.2,.91-1.17,1.94-2.19,3.07-3.07,1.13-.89,2.37-1.63,3.73-2.22,1.38-.57,2.84-1.04,4.62-1.09-.49,1.71-1.3,3.01-2.19,4.21-.91,1.17-1.94,2.19-3.08,3.07-1.14,.88-2.38,1.63-3.74,2.22-1.38,.57-2.84,1.04-4.61,1.09h0Z"/><path class="cls-2" d="M144.5,52.21c-.54,1.26-1.23,2.01-1.95,2.65-.73,.61-1.53,1.03-2.37,1.29-.84,.26-1.73,.35-2.68,.26-.96-.12-1.95-.37-3.1-1.11,.53-1.26,1.22-2.02,1.95-2.66,.73-.61,1.53-1.03,2.37-1.29,.84-.25,1.74-.35,2.69-.25,.96,.13,1.95,.37,3.1,1.11h-.01Z"/><path class="cls-2" d="M48.76,4.04c1.61,1.48,2.71,3.12,3.71,4.81,.96,1.7,1.74,3.45,2.36,5.27,.62,1.81,1.07,3.68,1.34,5.61,.24,1.94,.36,3.92-.03,6.07-1.61-1.48-2.72-3.12-3.71-4.81-.96-1.7-1.74-3.45-2.35-5.27-.61-1.81-1.06-3.68-1.33-5.62-.24-1.94-.36-3.92,.02-6.07h0Z"/><path class="cls-2" d="M27.59,14.92c1.88,.75,3.33,1.82,4.69,2.96,1.33,1.16,2.51,2.44,3.56,3.82,1.04,1.38,1.95,2.87,2.69,4.47,.72,1.62,1.34,3.32,1.54,5.33-1.88-.75-3.34-1.82-4.7-2.96-1.33-1.16-2.51-2.44-3.55-3.83-1.04-1.38-1.94-2.87-2.69-4.47-.72-1.62-1.35-3.32-1.55-5.33h.01Z"/><path class="cls-2" d="M10.82,30.92c1.92,.15,3.53,.72,5.06,1.38,1.51,.69,2.9,1.53,4.19,2.51,1.29,.98,2.48,2.1,3.54,3.37,1.05,1.3,2.02,2.7,2.67,4.51-1.93-.14-3.53-.71-5.06-1.37-1.51-.69-2.9-1.53-4.19-2.52-1.29-.98-2.47-2.1-3.54-3.38-1.05-1.3-2.02-2.7-2.67-4.51h0Z"/><path class="cls-2" d="M0,52.68c1.18-.72,2.2-.94,3.18-1.04,.97-.07,1.88,.04,2.75,.31,.86,.27,1.67,.71,2.41,1.34,.74,.66,1.44,1.43,1.97,2.71-1.18,.72-2.2,.95-3.18,1.05-.97,.07-1.88-.04-2.74-.32s-1.67-.72-2.41-1.35c-.74-.66-1.44-1.43-1.98-2.7H0Z"/></g><path class="cls-2" d="M72.85,103.16h-.96c-20.37-.26-39.46-8.77-52.37-23.32-.46-.52-.41-1.31,.11-1.77s1.31-.41,1.77,.11c12.44,14.03,30.85,22.23,50.52,22.48,19.33,.34,37.13-7.28,50.14-21.22,.47-.51,1.27-.53,1.77-.06,.51,.47,.53,1.27,.06,1.77-13.28,14.23-31.38,22.03-51.04,22.03v-.02Z"/><g><g><path class="cls-2" d="M1082.92,62.92s-26.84,29.79-59.94,29.79-59.94-29.79-59.94-29.79c0,0,26.84-29.79,59.94-29.79s59.94,29.79,59.94,29.79Z"/><path class="cls-3" d="M1022.98,93.97c-33.28,0-60.6-29.9-60.87-30.21l-.76-.84,.76-.84c.27-.3,27.59-30.21,60.87-30.21s60.6,29.91,60.87,30.21l.76,.84-.76,.84c-.27,.3-27.6,30.21-60.87,30.21Zm-58.21-31.05c4.66,4.81,29.17,28.54,58.21,28.54s53.55-23.73,58.21-28.54c-4.66-4.81-29.17-28.54-58.21-28.54s-53.55,23.73-58.21,28.54Z"/></g><g><path class="cls-1" d="M1072.11,62.92c-5.85,5.25-16.22,13.36-28.77,18.23-6.33,2.44-13.21,4.04-20.36,4.04s-14.04-1.61-20.36-4.07c-12.55-4.85-22.9-12.96-28.77-18.2,5.77-5.17,15.94-13.13,28.25-18,6.48-2.54,13.53-4.24,20.89-4.24s14.41,1.71,20.89,4.24c12.3,4.87,22.47,12.83,28.25,18h-.02Z"/><path class="cls-3" d="M1022.97,86.45c-6.73,0-13.73-1.4-20.82-4.15-12.4-4.78-22.7-12.67-29.15-18.44l-1.05-.94,1.05-.93c6.3-5.64,16.38-13.39,28.62-18.23,7.34-2.87,14.52-4.33,21.35-4.33s14.01,1.46,21.35,4.33c12.24,4.85,22.32,12.59,28.63,18.24l1.04,.93-1.04,.93c-5.24,4.71-16,13.36-29.16,18.47-7.12,2.74-14.12,4.13-20.82,4.13h0Zm-47.24-23.54c6.34,5.52,15.94,12.63,27.33,17.03,6.79,2.65,13.49,3.98,19.91,3.98s13.09-1.33,19.91-3.96c11.96-4.64,21.91-12.33,27.33-17.06-5.34-4.65-15.11-12.2-26.81-16.83-7.04-2.76-13.91-4.15-20.43-4.15s-13.39,1.4-20.43,4.16c-11.69,4.63-21.47,12.18-26.81,16.83h0Z"/></g><g><path class="cls-3" d="M1048.03,62.54c0,6.93-1.76,13.36-4.7,18.6-6.33,2.44-13.21,4.04-20.36,4.04s-14.04-1.61-20.36-4.07c-2.96-5.25-4.7-11.65-4.7-18.58,0-6.5,1.53-12.58,4.17-17.63,6.48-2.54,13.53-4.24,20.89-4.24s14.41,1.71,20.89,4.24c2.64,5.05,4.17,11.12,4.17,17.63h0Z"/><path class="cls-3" d="M1022.97,86.45c-6.73,0-13.73-1.4-20.82-4.15l-.42-.16-.22-.39c-3.18-5.63-4.86-12.26-4.86-19.2,0-6.51,1.49-12.81,4.31-18.21l.22-.42,.44-.17c7.34-2.87,14.52-4.33,21.35-4.33s14.01,1.46,21.35,4.33l.44,.17,.22,.42c2.82,5.4,4.31,11.7,4.31,18.21,0,6.9-1.68,13.54-4.85,19.22l-.22,.39-.42,.16c-7.11,2.74-14.11,4.12-20.81,4.12h-.02Zm-19.49-6.32c6.65,2.54,13.2,3.82,19.49,3.82s12.81-1.28,19.48-3.8c2.83-5.21,4.32-11.29,4.32-17.59,0-5.94-1.32-11.68-3.81-16.63-6.89-2.64-13.61-3.98-19.99-3.98s-13.1,1.34-19.99,3.98c-2.49,4.95-3.81,10.69-3.81,16.63,0,6.34,1.49,12.4,4.32,17.57h-.01Z"/></g><path class="cls-2" d="M1022.26,79.56c-1.92-8.09-4.41-15.58-10.38-17.33,6.83-2.43,9.07-8.66,10.38-15.61,.15-.79,1.3-.79,1.45,0,1.31,6.94,3.54,13.18,10.38,15.61-5.97,1.76-8.46,9.25-10.38,17.33-.18,.76-1.25,.76-1.43,0h-.02Z"/></g><g><path class="cls-2" d="M1023.57,1.14c1.05,1.95,1.57,3.9,1.97,5.86,.37,1.95,.54,3.9,.54,5.86s-.17,3.9-.54,5.86c-.4,1.95-.92,3.9-1.97,5.86-1.05-1.95-1.58-3.9-1.97-5.86-.37-1.95-.54-3.9-.54-5.86s.17-3.9,.54-5.86c.4-1.95,.92-3.9,1.97-5.86Z"/><path class="cls-2" d="M1039.15,26.95c-.38-2.09-.27-4-.05-5.88,.26-1.87,.7-3.67,1.3-5.41,.6-1.75,1.37-3.44,2.32-5.06,.98-1.62,2.08-3.19,3.68-4.59,.39,2.09,.28,4.01,.05,5.88-.26,1.87-.7,3.67-1.31,5.41s-1.37,3.43-2.33,5.06c-.98,1.61-2.08,3.19-3.67,4.59h.01Z"/><path class="cls-2" d="M1067.93,16.47c-.23,2.02-.88,3.73-1.62,5.36-.77,1.61-1.69,3.1-2.75,4.49-1.06,1.39-2.25,2.67-3.61,3.84-1.38,1.15-2.85,2.22-4.75,2.97,.22-2.03,.87-3.73,1.61-5.36,.77-1.61,1.69-3.1,2.76-4.49,1.06-1.39,2.26-2.67,3.61-3.84,1.38-1.15,2.85-2.22,4.74-2.97h.01Z"/><path class="cls-2" d="M1070.6,43.12c.49-1.71,1.31-3,2.2-4.2,.91-1.17,1.94-2.19,3.07-3.07,1.13-.89,2.37-1.63,3.73-2.22,1.38-.57,2.84-1.04,4.62-1.09-.49,1.71-1.3,3.01-2.19,4.21-.91,1.17-1.94,2.19-3.08,3.07-1.14,.88-2.38,1.63-3.74,2.22-1.38,.57-2.84,1.04-4.61,1.09h0Z"/><path class="cls-2" d="M1095.64,53.35c-.54,1.26-1.23,2.01-1.95,2.65-.73,.61-1.53,1.03-2.37,1.29-.84,.26-1.73,.35-2.68,.26-.96-.12-1.95-.37-3.1-1.11,.53-1.26,1.22-2.02,1.95-2.66,.73-.61,1.53-1.03,2.37-1.29,.84-.25,1.74-.35,2.69-.25,.96,.13,1.95,.37,3.1,1.11h-.01Z"/><path class="cls-2" d="M999.9,5.18c1.61,1.48,2.71,3.12,3.71,4.81,.96,1.7,1.74,3.45,2.36,5.27,.62,1.81,1.07,3.68,1.34,5.61,.24,1.94,.36,3.92-.03,6.07-1.61-1.48-2.72-3.12-3.71-4.81-.96-1.7-1.74-3.45-2.35-5.27-.61-1.81-1.06-3.68-1.33-5.62-.24-1.94-.36-3.92,.02-6.07h0Z"/><path class="cls-2" d="M978.73,16.06c1.88,.75,3.33,1.82,4.69,2.96,1.33,1.16,2.51,2.44,3.56,3.82,1.04,1.38,1.95,2.87,2.69,4.47,.72,1.62,1.34,3.32,1.54,5.33-1.88-.75-3.34-1.82-4.7-2.96-1.33-1.16-2.51-2.44-3.55-3.83-1.04-1.38-1.94-2.87-2.69-4.47-.72-1.62-1.35-3.32-1.55-5.33h.01Z"/><path class="cls-2" d="M961.96,32.06c1.92,.15,3.53,.72,5.06,1.38,1.51,.69,2.9,1.53,4.19,2.51,1.29,.98,2.48,2.1,3.54,3.37,1.05,1.3,2.02,2.7,2.67,4.51-1.93-.14-3.53-.71-5.06-1.37-1.51-.69-2.9-1.53-4.19-2.52-1.29-.98-2.47-2.1-3.54-3.38-1.05-1.3-2.02-2.7-2.67-4.51h0Z"/><path class="cls-2" d="M951.14,53.82c1.18-.72,2.2-.94,3.18-1.04,.97-.07,1.88,.04,2.75,.31,.86,.27,1.67,.71,2.41,1.34,.74,.66,1.44,1.43,1.97,2.71-1.18,.72-2.2,.95-3.18,1.05-.97,.07-1.88-.04-2.74-.32s-1.67-.72-2.41-1.35c-.74-.66-1.44-1.43-1.98-2.7h0Z"/></g><path class="cls-2" d="M1023.99,104.3h-.96c-20.37-.26-39.46-8.77-52.37-23.32-.46-.52-.41-1.31,.11-1.77s1.31-.41,1.77,.11c12.44,14.03,30.85,22.23,50.52,22.48,19.33,.34,37.13-7.28,50.14-21.22,.47-.51,1.27-.53,1.77-.06,.51,.47,.53,1.27,.06,1.77-13.28,14.23-31.38,22.03-51.04,22.03v-.02Z"/></g></svg>