<?xml version="1.0" encoding="UTF-8"?><svg id="Layer_2" xmlns="http://www.w3.org/2000/svg" viewBox="0 0 463.58 49.44"><defs><style>.cls-1{fill:#fff;}</style></defs><g id="Layer_1-2"><path class="cls-1" d="m0,.72h15.27c4.56,0,4.61,5.47,9.22,19.35C29.09,6.19,29.14.72,33.7.72h15.17c-1.3,1.3-1.68,2.93-1.68,5.66v36.68c0,2.74.38,4.37,1.68,5.66h-16.08c1.3-1.3,1.68-2.93,1.68-5.66V15.12c0-2.21-.19-5.23-1.78-5.23-1.82,0-4.51,9.36-6.67,18.24-1.97,8.06-3.31,15.75-5.18,15.75-1.73,0-4.18-8.45-6.62-15.89-1.1-3.36-5.66-18.1-7.97-18.1-1.58,0-1.78,3.02-1.78,5.23,0,15.36,10.9,22.47,10.9,29.38,0,2.93-2.5,4.22-5.33,4.22H0c1.3-1.3,1.68-2.93,1.68-5.66V6.38C1.68,3.65,1.3,2.02,0,.72Z"/><path class="cls-1" d="m62.26.72c4.61,0,6.24,4.46,6.24,8.26,0,6.14-4.46,8.88-4.46,14.98,0,2.4,1.87,4.85,5.86,4.8,6.29-.05,7.3-4.75,7.3-7.78,0-6.24-7.1-12.96-7.1-17.52,0-1.49,1.15-2.74,2.69-2.74h11.19c3.17,0,3.79,4.08,3.79,7.06,0,14.35-14.69,22.13-14.69,28.47,0,7.15,4.7,8.78,4.7,11.14,0,.77-.67,1.34-2.5,1.34h-11.67c-2.06,0-2.98-2.54-2.98-4.61,0-6.24,10.95-9.31,10.95-12.19,0-.38-.24-.72-.62-.72-1.25,0-1.97,1.2-5.42,1.2-7.25,0-8.98-5.76-9.5-10.94-.62-6.34-1.15-16.42-6.67-20.74h12.91Z"/><path class="cls-1" d="m89.18,38.4c0-2.88,9.12-7.63,11.62-7.54,1.44.05,2.69,1.01,2.45,2.83-.67,5.04-1.54,12,5.95,12,3.7,0,7.01-2.78,7.01-6.48,0-4.9-4.27-7.2-9.02-8.69-9.5-2.93-17.67-5.81-17.67-15.94,0-8.06,6.77-14.59,14.83-14.59,3.74,0,6.67,1.92,11.04,1.92,3.31,0,4.27-1.92,5.76-1.92,3.36,0-1.01,13.3-6.86,13.3-7.06,0-11.47-5.76-17.91-5.76-1.78,0-3.22,1.54-3.22,3.36,0,5.18,9.07,6.14,16.32,6.82,8.06.77,13.54,6.1,13.54,13.49,0,8.54-5.62,18.24-19.01,18.24-8.02,0-14.83-5.28-14.83-11.04Z"/><path class="cls-1" d="m125.18,18.24V.72h37.3v17.52c0,.62-.38,1.15-1.06,1.15-2.4,0-6.67-16.27-9.74-16.27-1.39,0-1.49,1.58-1.49,3.07v36.87c0,2.74.38,4.37,1.68,5.66h-16.08c1.3-1.3,1.68-2.93,1.68-5.66V6.19c0-1.49-.1-3.07-1.49-3.07-3.07,0-7.34,16.27-9.75,16.27-.67,0-1.06-.53-1.06-1.15Z"/><path class="cls-1" d="m165.6,43.06V6.38c0-2.74-.38-4.37-1.68-5.66h16.08c-1.3,1.3-1.68,2.93-1.68,5.66v36.68c0,2.74.38,4.37,1.68,5.66h-16.08c1.3-1.3,1.68-2.93,1.68-5.66Z"/><path class="cls-1" d="m181.68,24.72c0-11.91,5.62-24.72,17.43-24.72,3.74,0,6.67,1.92,11.04,1.92,3.31,0,4.27-1.92,5.76-1.92,1.87,0,1.2,3.84-.14,6.96-.43,1.01-1.15,2.4-2.11,3.65-2.06,2.69-6.48,6.14-6.43,9.65,0,1.58,1.1,2.98,2.78,2.98,1.01,0,.91-.48,1.44-.48.77,0,1.06,1.68,1.06,2.64,0,3.6-3.6,6.91-7.63,6.91s-7.15-3.07-7.15-6.91c0-7.2,9.94-9.17,9.94-11.14,0-.67-.48-1.01-1.34-1.15-6.58-1.06-9.65-5.57-15.17-5.57-3.22,0-3.94,4.03-3.94,5.81,0,9.89,6.24,24.87,17.71,24.87,8.4,0,8.64-7.1,10.99-7.1.58,0,1.2.38,1.2,2.59,0,6.19-5.76,15.75-15.99,15.75-10.75,0-19.44-8.16-19.44-24.72Z"/><path class="cls-1" d="m253.49,0c3.74,0,6.67,1.92,11.04,1.92,3.31,0,4.27-1.92,5.76-1.92,1.87,0,1.25,3.84-.14,6.96-1.01,2.26-3.26,6.34-6.72,6.34-8.54,0-11.67-5.76-17.91-5.76-3.22,0-3.94,4.03-3.94,5.81,0,9.89,6.24,24.87,17.71,24.87,6.77,0,8.83-5.52,8.83-9.5,0-2.78-.34-4.42-1.73-4.42-2.11,0-3.12,6.58-9.17,6.58-5.47,0-8.16-3.55-8.16-7.87,0-1.49.91-3.17,2.21-3.17.77,0,1.87,1.49,4.18,1.49,3.22,0,4.7-2.16,9.26-2.16,2.69,0,6.24,1.58,6.24,5.81v12.19c-1.63,5.76-7.01,12.29-15.46,12.29-10.75,0-19.44-8.16-19.44-24.72,0-11.91,5.62-24.72,17.43-24.72Z"/><path class="cls-1" d="m273.5,39.41c3.89-13.01,5.38-20.5,7.78-33.84.34-1.87,0-3.84-1.06-4.85h21.27c-1.06,1.01-1.39,2.98-1.06,4.85,2.4,13.35,3.89,20.83,7.78,33.84,1.2,3.98,2.26,7.68,4.22,9.31h-19.83c1.1-1.25,1.73-3.26,1.73-5.23,0-1.58-.62-6.34-1.58-11.81h-7.06c1.68,4.03,3.31,7.97,3.31,11.95,0,2.26-.67,5.09-3.5,5.09h-16.23c1.97-1.63,3.02-5.33,4.22-9.31Zm18.82-9.89c-1.78-9.22-4.46-19.39-7.15-19.39-2.5,0-3.31,3.6-3.31,7.44,0,4.22,1.39,8.16,2.93,11.95h7.54Z"/><path class="cls-1" d="m332.25.72c11.67,0,16.13,6.1,16.13,13.87s-3.84,15.22-13.44,15.22-11.52-7.92-14.26-7.92c-1.3,0-1.63.77-1.63,1.54,0,2.59,6.05,5.09,11.62,7.2,7.06,2.64,17.23,6.14,17.23,13.73,0,3.07-.82,4.37-3.17,4.37h-10.37c-.62,0-1.39-.29-1.39-1.1,0-1.73.82-2.45.82-4.85,0-6.38-13.49-15.22-15.84-15.22-.67,0-.86.72-.86.96,0,4.75,12.96,6.1,12.96,15.36,0,1.92-1.06,4.85-3.41,4.85h-13.68c1.3-1.3,1.68-2.93,1.68-5.66v-8.21l-.05-10.13V6.38c0-2.74-.38-4.37-1.68-5.66h19.35Zm-15.22,14.79c0,4.32,7.78,4.75,14.4,4.75s14.45-.43,14.45-4.75-9.79-4.75-16.42-4.75c-4.9,0-12.43.43-12.43,4.75Z"/><path class="cls-1" d="m364.8.72c14.64,0,20.64,17.95,20.64,30.05,0,14.26-5.57,17.95-14.98,17.95h-20.4c1.3-1.3,1.68-2.93,1.68-5.66V6.38c0-2.74-.38-4.37-1.68-5.66h14.74Zm-.58,14.4v19.2c0,8.45.86,11.95,3.55,11.95,3.65,0,5.09-7.34,5.09-21.46,0-9.26-.38-21.36-4.8-21.36-2.98,0-3.84,3.22-3.84,11.67Z"/><path class="cls-1" d="m405.26,0c3.74,0,6.67,1.92,11.04,1.92,3.31,0,4.27-1.92,5.76-1.92,1.87,0,1.2,3.84-.14,6.96-.96,2.26-3.26,6.34-6.72,6.34-8.54,0-11.67-5.76-17.91-5.76-3.22,0-3.94,4.03-3.94,5.81,0,.91-.38,5.47.91,5.47,1.44,0,2.54-2.5,6.82-2.5,4.75,0,8.98,3.94,12.72,3.94,2.21,0,2.69-1.87,3.5-1.87.77,0,1.2,1.2,1.2,2.74,0,3.22-2.3,8.06-8.21,8.06-7.1,0-10.37-8.69-14.35-8.69-1.54,0-1.3,1.73-1.01,2.69,2.88,8.83,9.46,15.03,16.13,15.03,8.4,0,8.64-7.1,10.99-7.1.58,0,1.2.38,1.2,2.59,0,6.53-5.76,15.75-15.99,15.75-10.75,0-19.44-8.16-19.44-24.72,0-11.91,5.62-24.72,17.43-24.72Z"/><path class="cls-1" d="m426.38,43.06V6.38c0-2.74-.38-4.37-1.68-5.66h14.3c3.36,0,4.27,1.54,8.59,14.4l4.51,13.44c1.78,5.28,3.5,10.99,5.23,10.99,1.58,0,1.78-3.02,1.78-5.23,0-15.36-10.9-22.47-10.9-29.38,0-2.93,2.5-4.22,5.33-4.22h10.03c-1.3,1.3-1.68,2.93-1.68,5.66v36.68c0,2.74.38,4.37,1.68,5.66h-12.58c-5.57,0-7.44-6.05-9.55-12.53-1.25-3.79-4.22-12.15-5.28-15.31-1.78-5.28-3.5-10.99-5.23-10.99-1.58,0-1.78,3.02-1.78,5.23,0,15.36,10.9,22.47,10.9,29.38,0,2.93-2.5,4.22-5.33,4.22h-10.03c1.3-1.3,1.68-2.93,1.68-5.66Z"/></g></svg>