<?xml version="1.0" encoding="UTF-8"?><svg id="Layer_2" xmlns="http://www.w3.org/2000/svg" viewBox="0 0 537.5 664.5"><defs><style>.cls-1{fill:#fff;}.cls-2{fill:#7bcbb7;}.cls-3{fill:#c2e5dd;}.cls-4{fill:#112646;}</style></defs><g id="Layer_1-2"><g><g><g><path class="cls-4" d="M482.72,526.51s-.03,.03-.03,.03c-3.89,2.51-7.78,4.07-11.32,4.07-13.81,0-26.81-11.42-26.81-11.42,8.86-9.06,16.17-21.89,17.78-28.22,1.58-6.35,.38-17.3-14.76-13.96-1.58,4.12-3.64,9.67-19.66,23-14.44-17.45-18.88-26.64-18.88-40.75,0-2.71,.38-5.07,1.08-7.16,11.93-3.79,20.34,3.19,29.23,3.19s19.66-3.67,27.74,4.27c8.08,7.93,9.04,24.76,12.86,33.14,3.79,8.41,9.34,23.07,2.79,33.82Z"/><path class="cls-4" d="M471.37,531.86c-14.12,0-27.1-11.26-27.64-11.74-.26-.23-.41-.55-.43-.9-.01-.34,.12-.68,.36-.92,8.43-8.62,15.83-21.26,17.46-27.65,.85-3.41,.82-8.01-1.81-10.71-2.17-2.23-5.8-2.85-10.81-1.85-1.65,4.23-4.4,10.08-19.78,22.88-.26,.21-.59,.31-.92,.28-.33-.03-.64-.19-.85-.45-14.87-17.97-19.17-27.29-19.17-41.55,0-2.8,.37-5.27,1.15-7.56,.13-.38,.43-.67,.81-.79,7.81-2.48,14.25-.54,19.94,1.17,3.35,1.01,6.51,1.96,9.67,1.96,2.03,0,4.15-.2,6.39-.4,7.33-.67,15.63-1.45,22.23,5.03,5.53,5.43,7.82,14.59,9.84,22.68,1.03,4.13,2,8.03,3.28,10.84,2.53,5.61,10.22,22.68,2.72,34.99-.05,.07-.1,.14-.15,.2-.08,.09-.16,.16-.26,.22-4.39,2.83-8.43,4.27-12,4.27Zm-24.97-12.79c3.27,2.58,13.96,10.28,24.97,10.28,3.03,0,6.53-1.25,10.41-3.72,4.43-7.51,3.45-18.12-3-32.42-1.37-3.01-2.37-7.02-3.43-11.26-1.94-7.77-4.13-16.57-9.16-21.5-5.77-5.66-13.12-4.97-20.24-4.32-2.31,.21-4.48,.41-6.63,.41-3.53,0-6.86-1.01-10.39-2.07-5.43-1.64-11.04-3.33-17.84-1.37-.55,1.86-.82,3.87-.82,6.15,0,13.3,4.01,22.18,17.79,38.97,14.78-12.45,16.81-17.72,18.29-21.59,.15-.39,.52-.76,.93-.86,6.26-1.38,10.9-.57,13.81,2.42,3.35,3.44,3.46,9.01,2.44,13.08-1.64,6.45-8.58,18.69-17.15,27.8Z"/></g><g><path class="cls-2" d="M506.87,494.6c-1.76,9.19-12.88,24.61-24.15,31.91,6.55-10.75,1-25.41-2.79-33.82-3.82-8.39-4.77-25.21-12.86-33.14-8.08-7.93-18.88-4.27-27.74-4.27s-17.3-6.98-29.23-3.19c2.86-8.81,11-12.5,17.8-14.41,8.41-2.39,15.22-2.23,29.17-15.06,13.96-12.86,29.35-18.4,43.94,1.58,14.59,19.99,8.24,58.02,5.85,70.4Z"/><path class="cls-4" d="M482.72,527.76c-.32,0-.63-.12-.88-.36-.42-.41-.5-1.05-.2-1.55,4.59-7.52,3.65-18.2-2.86-32.65-1.37-3.01-2.37-7.02-3.43-11.26-1.94-7.77-4.13-16.57-9.16-21.5-5.77-5.66-13.12-4.97-20.24-4.32-2.31,.21-4.48,.41-6.63,.41-3.53,0-6.86-1.01-10.39-2.07-5.6-1.68-11.38-3.43-18.45-1.18-.45,.14-.94,.02-1.27-.31-.33-.33-.45-.83-.3-1.27,2.4-7.4,8.51-12.38,18.66-15.23,1.36-.38,2.68-.71,4-1.02,6.78-1.65,13.18-3.2,24.67-13.76,9.47-8.73,17.96-12.56,25.91-11.8,7.14,.7,13.84,5.27,19.89,13.57,13.65,18.7,9.66,52.75,6.07,71.38-1.91,9.99-13.69,25.59-24.7,32.73-.21,.13-.45,.2-.68,.2Zm-29.83-74.58c5.25,0,10.55,1.04,15.06,5.47,5.53,5.43,7.82,14.59,9.84,22.68,1.03,4.13,2,8.03,3.28,10.84,2.23,4.96,8.5,18.86,4.75,30.52,9.84-7.96,18.39-20.92,19.81-28.33,0,0,0,0,0,0,3.51-18.23,7.46-51.49-5.63-69.42-5.62-7.7-11.71-11.92-18.11-12.55-7.21-.73-15.04,2.94-23.96,11.15-11.97,11-18.99,12.7-25.78,14.35-1.28,.31-2.57,.63-3.91,1-8.18,2.29-13.46,6.02-16.05,11.35,6.71-1.41,12.39,.29,17.46,1.82,3.35,1.01,6.51,1.96,9.67,1.96,2.03,0,4.15-.2,6.39-.4,2.32-.21,4.74-.44,7.16-.44Z"/></g><g><path class="cls-1" d="M397.15,539.31c0,3.29-.68,6.4-1.86,9.21-1.26,2.99-3.11,5.67-5.42,7.88-2.39,1.76-3.77,2.86-4.17,3.24-.05,.03-.08,.05-.13,.08-3.57,2.13-7.76,3.36-12.23,3.36-6.98,0-13.28-3.01-17.63-7.81-3.82-4.22-6.15-9.82-6.15-15.97,0-10.22,6.43-18.93,15.47-22.3,2.59-.95,5.37-1.48,8.31-1.48,13.16,0,23.8,10.65,23.8,23.78Z"/><path class="cls-4" d="M373.35,564.35c-7.06,0-13.82-3-18.56-8.22-4.18-4.62-6.48-10.59-6.48-16.81,0-10.41,6.54-19.85,16.28-23.47,2.81-1.03,5.75-1.56,8.75-1.56,13.82,0,25.06,11.23,25.06,25.03,0,3.35-.66,6.61-1.96,9.7-1.3,3.11-3.28,5.98-5.71,8.3-2.71,2.01-3.91,2.99-4.18,3.25-.08,.07-.17,.14-.26,.19-3.95,2.36-8.4,3.59-12.95,3.59Zm0-47.55c-2.7,0-5.35,.47-7.88,1.4-8.76,3.26-14.65,11.75-14.65,21.12,0,5.6,2.07,10.97,5.83,15.13,4.26,4.7,10.34,7.39,16.7,7.39,4.09,0,8.1-1.1,11.58-3.19,.35-.32,1.7-1.41,4.19-3.25,2.06-1.99,3.84-4.57,5.01-7.36,1.17-2.78,1.76-5.72,1.76-8.73,0-12.42-10.11-22.52-22.55-22.52Z"/></g><g><path class="cls-4" d="M395.3,548.53c-1.26,2.99-3.11,5.67-5.42,7.88-2.39,1.76-3.77,2.86-4.17,3.24-.05,.03-.08,.05-.13,.08-3.57,2.13-7.76,3.36-12.23,3.36-6.98,0-13.28-3.01-17.63-7.81-.03-.48-.05-.95-.05-1.43,0-11.15,9.04-20.16,20.16-20.16,9.31,0,17.12,6.28,19.46,14.84Z"/><path class="cls-4" d="M373.35,564.35c-7.06,0-13.82-3-18.56-8.22-.19-.22-.31-.49-.32-.78-.03-.5-.05-1-.05-1.5,0-11.81,9.61-21.42,21.42-21.42,9.64,0,18.14,6.48,20.67,15.76,.07,.27,.06,.56-.05,.82-1.3,3.11-3.28,5.98-5.71,8.3-2.71,2.01-3.9,2.99-4.18,3.25-.08,.07-.17,.14-.26,.19-3.95,2.36-8.4,3.59-12.95,3.59Zm-16.4-9.58c4.24,4.5,10.19,7.07,16.4,7.07,4.09,0,8.1-1.1,11.58-3.19,.35-.32,1.7-1.41,4.19-3.25,1.97-1.89,3.67-4.32,4.84-6.96-2.37-7.97-9.76-13.5-18.13-13.5-10.42,0-18.91,8.48-18.91,18.91,0,.3,.01,.61,.02,.91Z"/></g><g><polygon class="cls-3" points="369.8 539.31 371.13 543.5 375.31 544.83 371.13 546.15 369.8 550.34 368.47 546.15 364.29 544.83 368.47 543.5 369.8 539.31"/><polygon class="cls-3" points="379.66 548.39 380.99 552.57 385.17 553.9 380.99 555.23 379.66 559.41 378.33 555.23 374.15 553.9 378.33 552.57 379.66 548.39"/><circle class="cls-3" cx="383.13" cy="542.87" r="2.68"/><circle class="cls-3" cx="362.84" cy="553.74" r="2.68"/></g><path class="cls-4" d="M433.78,441.95c3.05-.36,5.84-1.29,8.55-2.43,2.7-1.15,5.28-2.59,7.8-4.14,5.09-3.05,9.86-6.63,14.89-10.09-1.79,2.5-3.93,4.7-6.21,6.74-2.27,2.05-4.75,3.89-7.38,5.5-2.65,1.57-5.43,3-8.45,3.83-2.98,.86-6.19,1.28-9.2,.59Z"/><path class="cls-4" d="M468.74,421.42c.16-1.47,.83-2.36,1.63-3.12,.84-.7,1.81-1.26,3.29-1.24-.16,1.47-.83,2.36-1.63,3.12-.85,.7-1.81,1.26-3.29,1.24Z"/><g><polygon class="cls-2" points="472.15 496.62 473.88 502.08 479.35 503.81 473.88 505.55 472.15 511.01 470.41 505.55 464.95 503.81 470.41 502.08 472.15 496.62"/><polygon class="cls-2" points="450.03 457.4 451.76 462.86 457.22 464.6 451.76 466.33 450.03 471.8 448.29 466.33 442.83 464.6 448.29 462.86 450.03 457.4"/><circle class="cls-2" cx="424.97" cy="463.92" r="2.99"/><circle class="cls-2" cx="468.25" cy="478.16" r="2.25"/><circle class="cls-2" cx="459.14" cy="516.39" r="3.1"/><circle class="cls-2" cx="473.73" cy="524.13" r="1.94"/><path class="cls-2" d="M437.2,478.15c0,4.7-3.79,8.49-8.46,8.49s-8.49-3.79-8.49-8.49c0-.4,.03-.8,.1-1.18,1.48,2.39,4.12,3.97,7.13,3.97,4.29,0,7.83-3.19,8.36-7.33,.85,1.31,1.36,2.86,1.36,4.54Z"/></g><g><path class="cls-3" d="M462.33,490.96c-1.61,6.33-8.91,19.16-17.78,28.22,0,0-10.37,10.47-31.23,22.37-11.32,6.48-19.11,11.67-23.45,14.86,4.49-4.32,7.28-10.39,7.28-17.1,0-13.13-10.65-23.78-23.8-23.78-2.94,0-5.72,.53-8.31,1.48,8.49-5.3,21.67-6.05,31.16-7.36,12.83-1.73,23.15-3.01,31.71-9.67,16.02-13.33,18.08-18.88,19.66-23,15.14-3.34,16.35,7.61,14.76,13.96Z"/><path class="cls-4" d="M389.87,557.67c-.36,0-.71-.15-.96-.45-.43-.51-.38-1.26,.09-1.71,4.45-4.27,6.89-10.02,6.89-16.19,0-12.42-10.11-22.52-22.55-22.52-2.7,0-5.35,.47-7.88,1.4-.6,.23-1.28-.05-1.56-.63-.28-.58-.08-1.27,.46-1.62,7.33-4.58,18.1-5.88,26.76-6.92,1.7-.21,3.35-.4,4.89-.62l.76-.1c12.42-1.67,22.23-2.99,30.35-9.31,15.63-13.01,17.71-18.42,19.23-22.38,.15-.39,.52-.76,.93-.86,6.26-1.38,10.9-.57,13.81,2.42,3.35,3.44,3.46,9.01,2.44,13.08,0,0,0,0,0,0-1.7,6.68-9.1,19.59-18.1,28.79-.43,.44-10.74,10.73-31.51,22.58-12.56,7.18-20.01,12.35-23.33,14.78-.22,.16-.48,.24-.74,.24Zm-15.04-43.34c13.13,.76,23.58,11.68,23.58,24.99,0,4.13-.99,8.1-2.86,11.63,4.09-2.71,9.74-6.25,17.15-10.49,20.45-11.67,30.86-22.06,30.97-22.17,8.42-8.62,15.83-21.25,17.45-27.65,.85-3.41,.82-8.01-1.81-10.71-2.17-2.23-5.8-2.85-10.81-1.85-1.65,4.23-4.4,10.08-19.78,22.88-8.69,6.76-18.8,8.12-31.59,9.84l-.75,.1c-1.55,.22-3.21,.41-4.93,.62-5.43,.65-11.3,1.36-16.61,2.8Zm87.5-23.37h0Z"/></g><g><path class="cls-4" d="M407.77,537.97c3.22-2.41,6.48-4.71,9.74-6.98,3.23-2.32,6.51-4.55,9.69-6.92,3.21-2.32,6.38-4.69,9.5-7.13,3.09-2.48,6.22-4.92,9.13-7.68-2.17,3.4-4.92,6.41-7.84,9.18-2.91,2.79-6.07,5.3-9.3,7.69-3.25,2.37-6.64,4.53-10.12,6.53-1.74,1-3.53,1.92-5.31,2.84-1.84,.83-3.63,1.72-5.49,2.48Z"/><path class="cls-4" d="M453.12,498.25c.09,1.3-.39,2.54-1.08,3.59-.37,.51-.77,1-1.28,1.39-.49,.39-1.03,.75-1.67,.93,.61-1.14,1.26-2.07,1.9-3.03l1.01-1.42c.36-.47,.68-.97,1.12-1.45Z"/></g></g><g><g><path class="cls-1" d="M370.92,472.43c0,1.71-.15,3.36-.45,4.97-2.33,12.28-13.13,21.57-26.09,21.57-3.74,0-7.31-.78-10.52-2.16-9.42-4.09-15.99-13.46-15.99-24.38,0-14.64,11.88-26.51,26.51-26.51,7.61,0,14.46,3.19,19.31,8.31,4.49,4.75,7.23,11.15,7.23,18.2Z"/><path class="cls-4" d="M344.38,500.22c-3.82,0-7.52-.76-11.02-2.26-10.18-4.43-16.75-14.45-16.75-25.53,0-15.31,12.46-27.77,27.77-27.77,7.73,0,14.91,3.09,20.22,8.7,4.88,5.16,7.57,11.93,7.57,19.07,0,1.78-.16,3.53-.47,5.2-2.49,13.09-13.98,22.59-27.32,22.59Zm0-53.05c-13.93,0-25.26,11.33-25.26,25.26,0,10.08,5.98,19.2,15.24,23.23,3.17,1.36,6.55,2.05,10.02,2.05,12.14,0,22.59-8.64,24.85-20.55,.29-1.52,.43-3.11,.43-4.73,0-6.49-2.45-12.65-6.89-17.34-4.83-5.11-11.37-7.92-18.4-7.92Z"/></g><g><path class="cls-3" d="M391.81,380.56s-19.48,17.3-25.41,36.58c-8.49,14.91-3.11,35.6-2.71,37.08-4.85-5.12-11.7-8.31-19.31-8.31-14.64,0-26.51,11.88-26.51,26.51-4.04-38.89,22.12-72.18,22.12-72.18,0,0,14.04-20.21,33.64-33.67,.98,.95,1.86,1.86,2.66,2.66,5.05,5.17,10.42,8.61,15.52,11.32Z"/><path class="cls-4" d="M317.86,473.68c-.64,0-1.18-.48-1.25-1.13-4.05-38.95,22.12-72.75,22.38-73.09,.1-.14,14.35-20.5,33.92-33.93,.49-.34,1.16-.28,1.59,.13,.67,.66,1.3,1.29,1.89,1.88l.78,.79c5.46,5.6,11.3,9.02,15.22,11.1,.36,.19,.61,.55,.66,.96,.05,.41-.11,.81-.41,1.09-.19,.17-19.29,17.3-25.04,36.01-.03,.09-.06,.17-.11,.25-8.29,14.58-2.83,35.26-2.59,36.14,.15,.56-.1,1.14-.6,1.42-.5,.28-1.13,.19-1.53-.23-4.83-5.11-11.36-7.92-18.4-7.92-13.93,0-25.26,11.33-25.26,25.26,0,.67-.52,1.22-1.19,1.25-.02,0-.04,0-.07,0Zm55.63-105.48c-18.74,13.16-32.34,32.56-32.47,32.76-.27,.35-21.27,27.5-22.28,60.8,4.19-10.04,14.1-17.11,25.64-17.11,6.35,0,12.33,2.09,17.21,5.95-1.35-7.15-3.01-22.15,3.65-33.97,5.17-16.65,19.91-31.54,24.43-35.82-3.97-2.21-9.26-5.58-14.28-10.71l-.78-.79c-.36-.36-.73-.74-1.12-1.12Z"/></g><g><path class="cls-4" d="M373.63,366.57c-19.61,13.46-33.64,33.67-33.64,33.67,0,0-22.55-7.61-22.55-29.73,0-6.2,1.91-11.78,4.97-16.77,23.12-11.15,41.53,3.41,51.22,12.83Z"/><path class="cls-4" d="M339.98,401.5c-.13,0-.27-.02-.4-.07-.23-.08-23.4-8.16-23.4-30.92,0-5.98,1.73-11.85,5.16-17.43,.13-.2,.31-.37,.52-.47,17.38-8.38,35.09-3.98,52.64,13.06,.27,.26,.41,.63,.38,1.01s-.23,.72-.54,.93c-19.18,13.16-33.18,33.15-33.32,33.35-.24,.35-.63,.54-1.03,.54Zm-16.7-46.78c-3.05,5.09-4.6,10.4-4.6,15.8,0,18.52,16.82,26.55,20.84,28.21,2.79-3.82,15.39-20.43,32.12-32.3-16.44-15.47-32.27-19.3-48.37-11.71Z"/></g><g><path class="cls-4" d="M412.87,416.99c-17.1,15.16-36.28,6.03-46.47,.15,5.93-19.28,25.41-36.58,25.41-36.58,16.97,8.99,31.03,9.62,21.07,36.43Z"/><path class="cls-4" d="M391.72,426.55c-11.52,0-21.53-5.77-25.95-8.32-.51-.29-.75-.9-.57-1.46,5.96-19.4,24.97-36.44,25.78-37.15,.39-.35,.96-.41,1.42-.17,2.65,1.4,5.21,2.59,7.69,3.74,13.22,6.14,22.77,10.57,13.97,34.24-.07,.19-.19,.37-.34,.5-7.26,6.44-14.9,8.62-21.98,8.62Zm-23.82-9.99c7.48,4.27,26.94,14.5,43.9-.3,7.81-21.23,.04-24.84-12.78-30.79-2.26-1.05-4.59-2.13-7.02-3.39-3.31,3.1-18.66,18.07-24.1,34.48Zm44.97,.43h0Z"/></g><g><path class="cls-2" d="M415.46,414.53c-.85,.9-1.71,1.71-2.59,2.46,9.97-26.81-4.09-27.44-21.07-36.43-5.1-2.71-10.47-6.15-15.52-11.32-.8-.8-1.68-1.71-2.66-2.66-9.69-9.42-28.1-23.98-51.22-12.83,7.86-12.83,23.43-21.82,34.22-27.47,14.99-7.86,50.19-10.7,57.57-13.81,7.36-3.09,11.95-4.04,14.96,7.38,3.04,11.42-.03,13.43,4.85,31.41,4.87,17.95,1.28,42.48-18.55,63.27Z"/><path class="cls-4" d="M412.87,418.25c-.25,0-.5-.07-.72-.23-.47-.33-.66-.93-.46-1.47,7.99-21.49,.21-25.11-12.67-31.09-2.5-1.16-5.09-2.36-7.8-3.8-4.07-2.16-10.13-5.72-15.83-11.56l-.78-.79c-.58-.58-1.19-1.2-1.86-1.85-16.94-16.46-33.23-20.59-49.8-12.6-.5,.24-1.1,.13-1.48-.29-.37-.41-.43-1.02-.14-1.5,7.8-12.74,22.65-21.61,34.71-27.92,9.59-5.03,26.81-7.96,40.65-10.31,7.73-1.31,14.41-2.45,17.02-3.55,3.92-1.64,7.69-2.99,10.83-1.45,2.58,1.27,4.43,4.34,5.84,9.66,1.37,5.16,1.53,8.51,1.7,12.05,.21,4.42,.45,9.43,3.14,19.35,5.91,21.79-1.14,45.89-18.86,64.47-.83,.88-1.71,1.72-2.68,2.55-.23,.2-.52,.3-.82,.3Zm-73.79-69.76c11.78,0,23.64,5.74,35.42,17.19,.67,.66,1.3,1.29,1.89,1.88l.78,.79c5.46,5.6,11.3,9.02,15.22,11.1,2.65,1.4,5.21,2.59,7.68,3.74,12.22,5.67,21.31,9.89,15.65,29.21,16.24-17.75,22.62-40.36,17.07-60.81-2.76-10.18-3.01-15.34-3.23-19.88-.17-3.56-.32-6.62-1.62-11.53-1.19-4.51-2.67-7.14-4.52-8.05-1.98-.97-4.71-.18-8.74,1.51-2.87,1.21-9.36,2.31-17.57,3.71-13.66,2.32-30.66,5.21-39.91,10.06-10.62,5.56-23.44,13.13-31.34,23.52,4.39-1.62,8.79-2.42,13.21-2.42Z"/></g><path class="cls-4" d="M421.93,333.05c-1.09,7.6-.94,15.02-.37,22.57,.22,3.78,.53,7.59,.35,11.47-.15,3.84-.89,7.87-2.95,11.15,1.15-3.68,1.16-7.41,.99-11.14-.21-3.73-.63-7.5-.89-11.32-.22-3.82-.31-7.69,.11-11.54,.38-3.85,1.29-7.65,2.76-11.19Z"/><path class="cls-4" d="M427.4,354.46c1.11,3.31,1.98,6.82,2.02,10.38,.16,3.55-.15,7.13-.9,10.61-1.5,6.94-4.36,13.64-8.86,19.09,1.42-3.21,2.61-6.46,3.72-9.71,1.07-3.26,2-6.56,2.68-9.89,.76-3.32,1.16-6.71,1.4-10.11,.29-3.42,.09-6.84-.07-10.36Z"/><path class="cls-4" d="M425.31,338.17c.62,1.59,.82,3.09,.99,4.61,.12,1.53,.18,3.05-.16,4.72-1.02-1.38-1.42-2.97-1.59-4.56-.12-1.59,0-3.24,.76-4.77Z"/><path class="cls-4" d="M355.6,440.68c-.16-1.68-.3-3.37-.36-5.07,.05-1.69,0-3.4,.19-5.09,.2-3.41,.99-6.75,1.83-10.05,1.03-3.26,2.29-6.45,3.95-9.43,1.67-2.97,3.63-5.81,6.12-8.12-2.02,2.71-3.67,5.64-5.09,8.65-1.41,3.02-2.65,6.12-3.54,9.32-.94,3.19-1.69,6.45-2.13,9.76-.54,3.3-.72,6.65-.97,10.03Z"/><path class="cls-4" d="M369.79,397.63c-.05-.49,.05-.9,.17-1.28,.12-.4,.33-.72,.56-1.04,.25-.3,.51-.59,.86-.81,.34-.22,.7-.43,1.19-.51-.01,.49-.14,.88-.29,1.24-.13,.38-.35,.68-.56,.99-.24,.29-.48,.57-.81,.8-.32,.23-.64,.46-1.11,.61Z"/><g><path class="cls-2" d="M406.74,408.1c0,4.61-3.51,8.34-7.86,8.34-.57,0-1.1-.07-1.63-.16-.18-.05-.35-.09-.51-.16-.57-.16-1.1-.4-1.6-.68-.22-.12-.4-.26-.59-.37-.04-.02-.09-.07-.15-.12-.26-.21-.53-.42-.77-.68-.11-.07-.2-.16-.31-.28-.2-.21-.4-.47-.59-.72-.24-.3-.46-.65-.66-1-.2-.37-.37-.75-.51-1.12,1.16,.72,2.5,1.12,3.93,1.12,4.33,0,7.86-3.73,7.86-8.34,0-1.07-.2-2.12-.55-3.05,.29,.19,.57,.37,.83,.61,.26,.21,.53,.44,.75,.68,.2,.21,.4,.44,.57,.68,.13,.16,.24,.33,.35,.49,.07,.07,.11,.16,.15,.23,.09,.14,.2,.3,.26,.47,.15,.26,.26,.54,.4,.82,.11,.3,.22,.65,.31,.98,.02,.05,.04,.09,.04,.14,.07,.26,.11,.51,.15,.77,.02,.14,.04,.3,.07,.44,.02,.3,.04,.61,.04,.93Z"/><circle class="cls-2" cx="392.15" cy="398.19" r="2.26"/><circle class="cls-2" cx="377.84" cy="414.12" r="3.37"/><circle class="cls-2" cx="352.95" cy="364.54" r="3.37"/><circle class="cls-2" cx="328.86" cy="364.19" r="3.37"/><polygon class="cls-2" points="336.77 370.93 339.01 377.97 346.05 380.21 339.01 382.44 336.77 389.49 334.53 382.44 327.49 380.21 334.53 377.97 336.77 370.93"/></g><g><path class="cls-4" d="M370.46,477.4c-2.33,12.28-13.13,21.57-26.09,21.57-3.74,0-7.31-.78-10.52-2.16-.1-.85-.15-1.71-.15-2.56,0-12.3,9.94-22.25,22.25-22.25,5.57,0,10.62,2.03,14.51,5.4Z"/><path class="cls-4" d="M344.38,500.22c-3.82,0-7.52-.76-11.02-2.26-.41-.18-.7-.56-.75-1.01-.11-.9-.16-1.81-.16-2.71,0-12.96,10.54-23.5,23.5-23.5,5.63,0,11.08,2.03,15.33,5.71,.34,.29,.5,.74,.41,1.18-2.49,13.09-13.98,22.59-27.32,22.59Zm-9.35-4.29c2.98,1.18,6.12,1.78,9.35,1.78,11.89,0,22.17-8.29,24.71-19.83-3.71-2.99-8.35-4.63-13.13-4.63-11.57,0-20.99,9.42-20.99,20.99,0,.56,.02,1.13,.07,1.69Z"/></g><g><circle class="cls-3" cx="355.67" cy="481.26" r="2.49"/><polygon class="cls-3" points="344.52 482.77 346.19 488.03 351.46 489.71 346.19 491.38 344.52 496.64 342.85 491.38 337.58 489.71 342.85 488.03 344.52 482.77"/></g></g><g><g><path class="cls-3" d="M304.86,366.57l-2.86-11.68-.02,.03c-.25,0-.48-2.91-.93-4.7,0,0-6.5,7.98-11.57,10.6,0,0-2.06-5.62-.63-13.53,0,0-5.22,4.12-12.68,12.05,0,0-3.34-5.4-4.57-15.06,0,0-4.8,3.16-11.93,10.92,0,0-3.34-3.46-6.03-11.73l-.03,.03c-.53,.25-8.99,4.42-12.98,9.16-3.64-22.82,19.83-18.86,25.38-44.54,2.21-18.4-1.61-31.41-1.61-39.02s5.57-15.69,19.78-11.9c17.17,4.59,24.15,38.39,25.26,51.55,0,0,.95,9.37-.78,20.94-1.76,11.57,8.76,24.73-3.82,36.88Z"/><path class="cls-4" d="M304.86,367.83c-.12,0-.23-.02-.35-.05-.43-.13-.76-.47-.87-.91l-2.77-11.29c-.28-.49-.4-1.28-.56-2.38,0-.05-.02-.11-.03-.16-2.33,2.61-6.58,7.02-10.24,8.9-.32,.17-.7,.18-1.03,.05-.34-.13-.6-.4-.72-.74-.08-.21-1.62-4.52-1.11-10.91-2.22,1.95-5.79,5.27-10.1,9.86-.27,.28-.64,.43-1.04,.39-.39-.04-.74-.25-.94-.59-.13-.21-3.02-4.96-4.44-13.47-1.96,1.53-5.54,4.59-10.07,9.51-.23,.25-.56,.4-.91,.41-.36,0-.68-.13-.92-.38-.14-.14-3.19-3.37-5.84-10.81-3,1.58-8.52,4.88-11.33,8.22-.32,.37-.82,.54-1.3,.4-.47-.13-.83-.52-.9-1.01-2.03-12.7,4.12-17.77,10.62-23.14,5.74-4.73,12.24-10.1,14.78-21.87,1.47-12.31,.16-22.38-.79-29.74-.45-3.5-.85-6.52-.85-9.01,0-4.66,1.88-8.79,5.16-11.3,2.7-2.08,7.71-4.08,16.2-1.81,18.27,4.89,25.1,39.67,26.19,52.65,.04,.37,.95,9.63-.79,21.23-.57,3.75,.23,7.73,1.09,11.93,1.63,8.06,3.49,17.21-5.27,25.67-.24,.23-.55,.35-.87,.35Zm-1.86-13.67c.1,.13,.17,.28,.21,.44l2.31,9.44c6-6.99,4.55-14.16,3.01-21.73-.86-4.23-1.75-8.61-1.11-12.81,1.69-11.27,.78-20.53,.77-20.62-.98-11.68-7.55-45.97-24.33-50.46-5.94-1.58-10.79-1.11-14.02,1.38-2.66,2.04-4.18,5.44-4.18,9.31,0,2.33,.38,5.28,.83,8.69,.97,7.49,2.3,17.74,.77,30.48-2.75,12.74-9.6,18.4-15.65,23.39-5.93,4.9-10.72,8.85-10.04,18.23,4.4-4.01,10.83-7.21,11.45-7.51,.27-.15,.6-.2,.91-.12,.42,.11,.76,.4,.9,.82,1.75,5.37,3.79,8.66,4.9,10.19,6.6-7.01,10.97-9.92,11.16-10.05,.36-.24,.82-.28,1.21-.09,.39,.18,.67,.55,.72,.98,.82,6.41,2.6,10.91,3.62,13.08,6.78-7.07,11.4-10.74,11.6-10.9,.41-.33,.97-.36,1.42-.09,.45,.27,.68,.79,.59,1.3-.94,5.17-.32,9.31,.16,11.4,4.54-3.02,9.77-9.41,9.83-9.48,.3-.37,.77-.53,1.24-.43,.46,.1,.83,.46,.95,.92,.22,.86,.39,1.96,.53,2.91,.08,.54,.15,1.02,.21,1.33Z"/></g><g><path class="cls-4" d="M392.36,257.73v.03c.23,10.39-1.38,20.79-6.78,29.1-12.7,19.51-47.91,30.13-76.13,21.89-1.1-13.16-8.08-46.95-25.26-51.55-14.21-3.79-19.78,4.29-19.78,11.9s3.82,20.61,1.61,39.02c-35.2,16.02-78.66,10.62-99.12-7.16-2.96-2.59-5.5-5.37-7.63-8.36v-.03c-.3-21.97,14.46-37.91,42.76-51.95,28.32-14.04,55.51-14.26,71.43-9.99,15.94,4.29,29.5,6.03,45.37,3.26,13.06-2.28,51.19-13.26,73.54,23.83Z"/><path class="cls-4" d="M220.6,318.78c-21.38,0-41.78-5.78-54.53-16.87-3-2.62-5.63-5.51-7.83-8.58-.15-.21-.23-.47-.23-.73-.3-21.67,13.11-38.04,43.46-53.1,28.45-14.1,56.01-14.45,72.31-10.08,17.69,4.76,30.68,5.7,44.83,3.24,1-.17,2.14-.4,3.41-.65,15.07-2.97,50.34-9.92,71.42,25.07,.12,.19,.18,.42,.18,.65v.03c.26,12.21-2.08,22.24-6.98,29.78-13.13,20.16-49.36,30.63-77.53,22.42-.5-.15-.86-.58-.9-1.1-.98-11.66-7.55-45.95-24.33-50.44-5.94-1.58-10.79-1.11-14.02,1.38-2.66,2.04-4.18,5.44-4.18,9.31,0,2.33,.38,5.28,.83,8.69,.97,7.49,2.3,17.74,.77,30.48-.05,.44-.33,.81-.73,.99-14.08,6.41-30.27,9.51-45.94,9.51Zm-60.09-26.58c2.04,2.8,4.46,5.43,7.21,7.83,18.58,16.14,60.89,23.43,97.14,7.25,1.36-12.1,.08-21.93-.85-29.15-.45-3.5-.85-6.52-.85-9.01,0-4.66,1.88-8.79,5.16-11.3,2.7-2.08,7.71-4.08,16.2-1.81,17.87,4.78,24.8,38.18,26.11,51.79,27.09,7.51,61.44-2.47,73.9-21.61,4.58-7.05,6.79-16.49,6.58-28.08-20.19-33.15-52.88-26.71-68.61-23.61-1.29,.25-2.45,.48-3.46,.66-14.54,2.53-27.84,1.58-45.91-3.29-15.86-4.25-42.72-3.88-70.55,9.91-29.19,14.48-42.19,30.05-42.06,50.44Z"/></g><g><path class="cls-3" d="M299.21,424.5s-18.45-.63-22.09,2.39c-3.67,3.01-11.75,5.72-11.75,5.72,0,0-19.33,36.63-27.42,7.93-8.08-28.67,7.91-76.7,15.67-97.04l.03-.03c2.69,8.26,6.03,11.73,6.03,11.73,7.13-7.76,11.93-10.92,11.93-10.92,1.23,9.67,4.57,15.06,4.57,15.06,7.46-7.93,12.68-12.05,12.68-12.05-1.43,7.91,.63,13.53,.63,13.53,5.07-2.61,11.57-10.6,11.57-10.6,.45,1.78,.68,4.7,.93,4.7-5.55,11.25-15.04,33.77-2.76,69.57Z"/><path class="cls-4" d="M246.76,452.78c-.24,0-.49-.01-.73-.04-4.07-.43-7.2-4.42-9.29-11.85-8.29-29.41,8.22-78.21,15.7-97.83,.07-.18,.17-.33,.31-.46,.31-.3,.77-.42,1.19-.32,.42,.11,.76,.4,.9,.82,1.75,5.37,3.79,8.66,4.9,10.19,6.6-7.01,10.97-9.92,11.16-10.05,.36-.24,.82-.28,1.21-.09,.39,.18,.67,.55,.72,.98,.82,6.41,2.6,10.91,3.62,13.08,6.78-7.07,11.4-10.74,11.6-10.9,.41-.33,.97-.36,1.42-.09,.45,.27,.68,.79,.59,1.3-.94,5.17-.32,9.31,.16,11.4,4.54-3.02,9.77-9.41,9.83-9.48,.3-.37,.77-.53,1.24-.43,.46,.1,.83,.46,.95,.92,.22,.86,.39,1.96,.53,2.91,.09,.59,.16,1.11,.23,1.4l.02,.03c.23,.37,.25,.83,.06,1.22-6.64,13.47-14.15,35.23-2.7,68.61,.13,.39,.07,.82-.18,1.15-.25,.33-.64,.51-1.05,.51-6.95-.24-18.87,.13-21.25,2.1-3.32,2.73-9.85,5.14-11.68,5.78-1.83,3.39-10.84,19.14-19.48,19.14Zm6.85-105.69c-7.79,21.04-22.13,65.88-14.45,93.12,1.79,6.35,4.19,9.73,7.14,10.04,6.47,.58,15.16-12.92,17.96-18.22,.15-.28,.41-.5,.71-.6,.08-.03,7.91-2.68,11.35-5.51,3.31-2.74,16.16-2.79,21.13-2.71-10.79-32.91-3.51-54.67,3.15-68.33-.11-.44-.2-1-.3-1.66,0-.05-.02-.11-.03-.16-2.33,2.61-6.58,7.02-10.24,8.9-.32,.17-.7,.18-1.03,.05-.34-.13-.6-.4-.72-.74-.08-.21-1.62-4.52-1.11-10.91-2.22,1.95-5.79,5.27-10.1,9.86-.27,.28-.64,.43-1.04,.39-.39-.04-.74-.25-.94-.59-.13-.21-3.02-4.96-4.44-13.47-1.96,1.53-5.54,4.59-10.07,9.51-.23,.25-.56,.4-.91,.41-.36,0-.68-.14-.92-.38-.13-.13-2.69-2.84-5.15-8.99Z"/></g><g><path class="cls-2" d="M392.36,257.73c-22.35-37.08-60.48-26.11-73.54-23.83-15.87,2.76-29.43,1.03-45.37-3.26-15.92-4.27-43.11-4.04-71.43,9.99-28.3,14.04-43.06,29.98-42.76,51.95-12.53-17.55-10.7-41.58,2.71-65.98,15.72-28.52,40.72-52.68,48.03-58.58,8.31-6.7,21.97-14.64,33.17-24.5,12.3-10.85,21.42-12.53,37.74-4.12,16.35,8.39,41.88,20.61,65.98,33.14,24.1,12.53,35.83,33.92,39.47,48.83,2.08,8.56,5.7,22.42,6,36.36Z"/><path class="cls-4" d="M159.26,293.84c-.4,0-.78-.19-1.02-.53-12.34-17.28-11.38-41.82,2.63-67.32,16.42-29.79,42.31-54.07,48.34-58.95,3.39-2.73,7.68-5.69,12.23-8.81,6.69-4.6,14.27-9.82,20.9-15.66,13.09-11.54,22.97-12.63,39.14-4.29,6.73,3.45,15.2,7.65,24.16,12.08,12.96,6.42,27.66,13.7,41.83,21.06,23.64,12.29,36.22,33.7,40.11,49.65l.42,1.74c2.12,8.65,5.33,21.72,5.61,34.89,.01,.57-.36,1.07-.91,1.23-.54,.16-1.13-.07-1.42-.56-20.17-33.48-53.01-27-68.79-23.9-1.29,.25-2.45,.48-3.46,.66-14.54,2.53-27.84,1.58-45.91-3.29-15.86-4.25-42.72-3.88-70.55,9.9-29.37,14.57-42.34,30.24-42.06,50.81,0,.55-.34,1.04-.86,1.21-.13,.04-.26,.06-.39,.06Zm103.98-158.56c-6.46,0-12.22,2.99-19.24,9.18-6.74,5.94-14.39,11.2-21.14,15.84-4.5,3.1-8.76,6.03-12.07,8.7-5.95,4.81-31.5,28.77-47.72,58.2-12.83,23.36-14.53,44.94-4.96,61.31,1.37-19.66,14.93-34.91,43.34-49,28.45-14.1,56.01-14.45,72.31-10.08,17.69,4.76,30.68,5.7,44.83,3.24,1-.17,2.14-.4,3.41-.65,14.47-2.86,47.6-9.38,68.88,21.14-.8-11.3-3.48-22.22-5.32-29.74l-.43-1.74c-3.76-15.41-15.94-36.12-38.83-48.02-14.15-7.36-28.83-14.63-41.79-21.04-8.97-4.44-17.44-8.64-24.19-12.1-6.71-3.46-12.11-5.23-17.09-5.23Z"/></g><path class="cls-4" d="M295.03,306.53c-.68,6.24-.92,12.27-.63,18.39,.1,3.06,.33,6.11,.5,9.2,.17,3.08,.4,6.21,.14,9.36-.78-3.04-1.54-6.04-2.08-9.12-.57-3.07-.92-6.19-1.06-9.34-.22-6.26,.53-12.75,3.14-18.49Z"/><path class="cls-4" d="M302,341.97c-1.47-5.05-2.49-10.25-2.72-15.58-.26-5.36,.5-10.58,.67-15.74,.27-5.19,.23-10.33-.33-15.47-.28-2.57-.7-5.12-1.28-7.65-.51-2.55-1.23-5.05-2.12-7.53,2.72,4.53,4.29,9.69,5.31,14.89,1.04,5.22,1.15,10.6,.93,15.87-.24,5.31-1.06,10.48-1.25,15.61-.11,2.58,0,5.17,.18,7.76,.09,2.61,.43,5.2,.62,7.83Z"/><g><path class="cls-4" d="M281.71,155.96c2.75,1.84,5.47,3.78,7.91,6.07,1.29,1.08,2.39,2.34,3.5,3.6l1.68,1.88,1.5,2.03c4.03,5.41,6.85,11.65,8.77,18.08,1.88,6.45,2.93,13.08,3.54,19.68l.83,9.9c.18,3.31,.53,6.58,.82,9.89-1.71-6.42-2.53-13.03-3.57-19.54-1.05-6.51-2.15-12.98-4.03-19.21-1.81-6.25-4.44-12.23-7.95-17.7-3.52-5.47-8.01-10.29-13-14.67Z"/><path class="cls-4" d="M311.44,180.46c3.93,6.48,6.61,13.67,8.4,21.02,.88,3.68,1.58,7.41,1.98,11.18,.44,3.76,.58,7.56,.32,11.34l-2.26-11.03c-.78-3.65-1.57-7.29-2.48-10.89-.85-3.62-1.82-7.21-2.82-10.8-.99-3.6-2.1-7.16-3.14-10.81Z"/><path class="cls-4" d="M302.96,169.84c1.63,.34,2.75,1.24,3.71,2.26,.91,1.07,1.69,2.27,1.84,3.92-1.7-.4-2.77-1.27-3.71-2.26-.88-1.05-1.62-2.2-1.84-3.92Z"/><path class="cls-4" d="M216.41,174.52c-5.3,5.18-10.47,10.45-15.35,15.95-4.86,5.53-9.55,11.19-13.89,17.12-4.39,5.89-8.43,12.03-12.25,18.32-1.91,3.15-3.7,6.36-5.43,9.62l-2.58,4.9c-.79,1.67-1.62,3.32-2.47,4.97,1.14-3.53,2.52-6.97,3.94-10.41,1.52-3.39,3.14-6.73,4.86-10.03,3.46-6.59,7.51-12.86,11.91-18.86,4.45-5.97,9.26-11.67,14.51-16.94,5.23-5.29,10.78-10.24,16.75-14.64Z"/><path class="cls-4" d="M177.88,245.4c.84-5.01,1.99-9.99,3.69-14.81,1.68-4.82,3.81-9.5,6.35-13.96,2.57-4.44,5.56-8.64,8.98-12.46,3.37-3.86,7.21-7.24,11.19-10.38-3.31,3.86-6.64,7.66-9.69,11.63-3.04,3.98-5.84,8.12-8.31,12.46-2.51,4.32-4.68,8.83-6.7,13.42-1.98,4.62-3.73,9.34-5.51,14.1Z"/><path class="cls-4" d="M219.74,170.35c.33-1.54,1.14-2.49,2.06-3.29,.97-.74,2.07-1.34,3.65-1.35-.32,1.55-1.13,2.49-2.06,3.29-.98,.74-2.07,1.34-3.65,1.35Z"/></g><polygon class="cls-2" points="239.61 242.44 242.68 252.11 252.34 255.18 242.68 258.25 239.61 267.92 236.53 258.25 226.87 255.18 236.53 252.11 239.61 242.44"/><polygon class="cls-2" points="236.42 295.59 238.35 301.64 244.4 303.57 238.35 305.49 236.42 311.54 234.5 305.49 228.45 303.57 234.5 301.64 236.42 295.59"/><polygon class="cls-2" points="307.62 246.95 309.2 251.91 314.16 253.49 309.2 255.06 307.62 260.03 306.05 255.06 301.08 253.49 306.05 251.91 307.62 246.95"/><polygon class="cls-2" points="358.72 247.33 360.68 253.5 366.86 255.46 360.68 257.42 358.72 263.6 356.76 257.42 350.59 255.46 356.76 253.5 358.72 247.33"/><polygon class="cls-2" points="332.2 284.66 334.16 290.83 340.34 292.8 334.16 294.76 332.2 300.93 330.24 294.76 324.07 292.8 330.24 290.83 332.2 284.66"/><circle class="cls-2" cx="185.1" cy="267.88" r="2.5"/><circle class="cls-2" cx="181.13" cy="299.43" r="2.5"/><circle class="cls-2" cx="227.27" cy="277.55" r="2.5"/><circle class="cls-2" cx="208.39" cy="254.72" r="2.5"/><circle class="cls-2" cx="251.84" cy="285.56" r="2.5"/><circle class="cls-2" cx="276.4" cy="243.03" r="1.89"/><path class="cls-2" d="M218.49,285.4c0,5.85-4.75,10.6-10.6,10.6s-10.6-4.75-10.6-10.6c0-2.71,1-5.17,2.69-7.03-.23,.83-.35,1.68-.35,2.59,0,5.27,4.29,9.57,9.57,9.57,4.29,0,7.93-2.84,9.14-6.73,.1,.53,.15,1.05,.15,1.61Z"/><circle class="cls-2" cx="329.5" cy="264.57" r="3.03"/><circle class="cls-2" cx="378" cy="274.14" r="2.26"/><circle class="cls-2" cx="362.82" cy="292.34" r="3.17"/><g><circle class="cls-1" cx="269.43" cy="435.77" r="31.84"/><path class="cls-4" d="M269.43,468.87c-18.25,0-33.1-14.85-33.1-33.1s14.85-33.1,33.1-33.1,33.09,14.85,33.09,33.1-14.85,33.1-33.09,33.1Zm0-63.68c-16.86,0-30.59,13.72-30.59,30.59s13.72,30.59,30.59,30.59,30.58-13.72,30.58-30.59-13.72-30.59-30.58-30.59Z"/></g><path class="cls-4" d="M289.32,367.58c-.34,2.6-.84,5.1-1.24,7.61-.43,2.5-.78,5-1.1,7.49-.6,5.01-.97,9.99-.99,15.19-1.03-2.42-1.47-5.04-1.68-7.65-.22-2.61-.1-5.24,.18-7.84,.71-5.18,2.18-10.28,4.83-14.8Z"/></g><g><g><path class="cls-3" d="M208.95,448.98c-3.79-2.06-8.11-3.21-12.7-3.21-14.71,0-26.64,11.93-26.64,26.64,0,.73,.03,1.46,.08,2.18-6-10.67-14.94-29.12-17.85-48.48-1.58-8.19-1.43-35.65-7.08-51.22,.9-.13,1.86-.25,2.81-.33,6.38-.55,12.2-1.56,17.53-2.81,0,0,10.77,17.32,20.36,44.36,5.32,12.23,16.5,25.33,23.5,32.87Z"/><path class="cls-4" d="M169.68,475.84c-.44,0-.87-.24-1.09-.64-5.42-9.65-14.98-28.83-18-48.91-.51-2.63-.83-7.12-1.24-12.8-.84-11.71-1.99-27.74-5.78-38.18-.13-.36-.09-.75,.11-1.08,.2-.33,.53-.54,.9-.6,.93-.13,1.91-.26,2.88-.33,5.88-.51,11.55-1.42,17.34-2.78,.52-.13,1.07,.1,1.35,.56,.11,.17,10.95,17.75,20.48,44.61,5.3,12.17,16.84,25.55,23.24,32.43,.42,.45,.45,1.14,.07,1.63-.38,.49-1.05,.63-1.59,.33-3.74-2.03-7.81-3.06-12.11-3.06-14,0-25.38,11.39-25.38,25.38,0,.7,.02,1.4,.07,2.1,.04,.59-.33,1.12-.89,1.29-.12,.03-.24,.05-.36,.05Zm-23.24-99.91c3.5,10.73,4.6,26.05,5.42,37.38,.39,5.37,.72,10.02,1.21,12.56,2.58,17.13,10.01,33.62,15.41,43.88,1.34-14.14,13.28-25.24,27.77-25.24,2.72,0,5.43,.4,8.02,1.17-7.27-8.23-15.55-18.92-19.97-29.07-8.35-23.53-17.66-39.8-19.82-43.44-5.54,1.26-11.19,2.15-16.81,2.63-.41,.03-.83,.08-1.23,.12Z"/></g><g><path class="cls-4" d="M151.83,426.1c-23.78,11.25-38.69,5.7-45.49-7.93,2.36-24.08,15.82-40.17,38.41-43.29,5.65,15.57,5.5,43.03,7.08,51.22Z"/><path class="cls-4" d="M129.04,433.32c-10.73,0-19.01-4.92-23.83-14.59-.11-.21-.15-.45-.13-.68,2.46-25.1,16.85-41.29,39.49-44.41,.58-.07,1.15,.26,1.35,.81,3.91,10.77,5.07,27,5.92,38.86,.39,5.37,.72,10.02,1.21,12.56,.11,.56-.18,1.13-.7,1.37-8.6,4.07-16.46,6.08-23.32,6.08Zm-21.42-15.39c7.28,14.18,22.45,16.81,42.81,7.44-.42-2.73-.72-6.84-1.08-11.88-.81-11.35-1.92-26.77-5.44-37.21-21,3.3-33.86,18.05-36.29,41.65Z"/></g><g><path class="cls-4" d="M218.29,397.51c-12.05,9.09-32.84,18.6-32.84,18.6-9.59-27.04-20.36-44.36-20.36-44.36,14.94-3.46,26.04-8.96,34.8-12.65,11.9-5,24.73,1.68,24.73,1.68,7.86,14.19,4.44,28.6-6.33,36.73Z"/><path class="cls-4" d="M185.45,417.37c-.17,0-.33-.03-.49-.1-.32-.14-.58-.4-.69-.74-9.44-26.6-20.14-43.95-20.25-44.12-.21-.34-.25-.77-.09-1.14,.16-.38,.48-.65,.88-.74,12.21-2.83,21.93-7.08,29.75-10.49,1.69-.74,3.3-1.44,4.84-2.09,12.3-5.16,25.25,1.44,25.8,1.73,.22,.11,.4,.29,.52,.51,7.78,14.05,5.1,29.45-6.67,38.34h0c-12.02,9.07-32.87,18.65-33.08,18.74-.17,.07-.34,.11-.52,.11Zm-18.41-44.8c2.73,4.68,11.3,20.1,19.13,41.82,4.64-2.19,21.24-10.25,31.37-17.89,10.63-8.03,13.09-21.96,6.17-34.78-2.04-.96-13.16-5.75-23.34-1.48-1.53,.64-3.13,1.34-4.81,2.08-7.55,3.3-16.87,7.37-28.52,10.24Zm51.25,24.94h0Z"/></g><g><path class="cls-1" d="M222.88,472.4c0,10.37-5.93,19.36-14.59,23.75-3.62,1.86-7.71,2.89-12.05,2.89-12.6,0-23.15-8.74-25.94-20.49-.3-1.28-.53-2.61-.63-3.97-.05-.73-.08-1.46-.08-2.18,0-14.71,11.93-26.64,26.64-26.64,4.59,0,8.91,1.16,12.7,3.21,8.29,4.52,13.93,13.31,13.93,23.43Z"/><path class="cls-4" d="M196.24,500.3c-12.99,0-24.16-8.82-27.16-21.45-.34-1.44-.56-2.84-.66-4.16-.05-.76-.08-1.52-.08-2.28,0-15.38,12.51-27.89,27.9-27.89,4.65,0,9.25,1.16,13.3,3.36,9,4.91,14.59,14.31,14.59,24.53s-5.85,20.09-15.28,24.87c-3.9,2.01-8.15,3.02-12.62,3.02Zm0-53.28c-14,0-25.38,11.39-25.38,25.38,0,.7,.02,1.4,.07,2.1,.09,1.19,.29,2.46,.6,3.77,2.73,11.49,12.89,19.52,24.71,19.52,4.07,0,7.93-.92,11.48-2.75,8.58-4.35,13.91-13.02,13.91-22.64s-5.09-17.85-13.28-22.32c-3.74-2.03-7.81-3.06-12.1-3.06Z"/></g><g><path class="cls-2" d="M224.61,360.77s-12.83-6.68-24.73-1.68c-8.76,3.69-19.86,9.19-34.8,12.65-5.32,1.26-11.15,2.26-17.53,2.81-.95,.08-1.91,.2-2.81,.33-22.6,3.11-36.05,19.21-38.41,43.29-6.83-13.63-12.05-32.51-8.26-49.64,3.82-17.12,6.83-39.64,12.38-52.5,5.55-12.83,10.95-19.11,18.71-19.11s13.63,3.41,22.85,10.24c9.19,6.8,19.66,12.83,32.34,18.55,12.68,5.7,25.06,14.26,36.96,29.95,1.28,1.68,2.39,3.39,3.31,5.1Z"/><path class="cls-4" d="M106.33,419.43c-.47,0-.91-.26-1.12-.69-4.07-8.13-13.05-29.33-8.36-50.47,1.12-5.04,2.16-10.44,3.25-16.15,2.57-13.46,5.24-27.38,9.2-36.57,6.1-14.11,11.86-19.86,19.86-19.86s14.01,3.38,23.6,10.49c9.14,6.76,19.64,12.79,32.11,18.42,14.94,6.71,26.84,16.36,37.44,30.34,1.3,1.7,2.44,3.47,3.42,5.25,.26,.49,.18,1.08-.21,1.48-.38,.4-.98,.49-1.47,.24-.12-.06-12.46-6.34-23.67-1.64-1.53,.64-3.13,1.34-4.81,2.08-7.91,3.45-17.75,7.76-30.19,10.64-5.81,1.37-11.77,2.33-17.7,2.84-.94,.08-1.87,.2-2.75,.32-21.7,2.99-34.96,17.97-37.34,42.17-.05,.56-.47,1.01-1.02,1.11-.08,.01-.15,.02-.23,.02Zm22.82-121.24c-6.83,0-11.92,5.32-17.55,18.35-3.86,8.93-6.49,22.72-9.04,36.05-1.1,5.74-2.13,11.15-3.26,16.22-3.9,17.6,2.09,35.36,6.34,44.94,3.62-22.64,17.62-37.17,38.94-40.1,.93-.13,1.91-.26,2.88-.33,5.88-.51,11.55-1.42,17.34-2.78,12.21-2.83,21.94-7.08,29.76-10.5,1.69-.74,3.3-1.44,4.84-2.09,8.49-3.57,17.3-1.52,22.12,.18-.39-.56-.79-1.12-1.21-1.68-10.34-13.64-21.93-23.03-36.47-29.57-12.64-5.7-23.29-11.82-32.57-18.69-9.14-6.77-14.78-10-22.1-10Z"/></g><path class="cls-4" d="M155.32,405.96c.67,4.31,1.26,8.56,2.12,12.77,.81,4.21,1.75,8.39,2.88,12.52,1.06,4.15,2.32,8.24,3.65,12.32,1.37,4.07,2.76,8.14,4.35,12.19-2.46-3.6-4.49-7.48-6.18-11.5-1.73-4-3.12-8.15-4.25-12.37-1.1-4.22-1.96-8.52-2.38-12.87-.54-4.33-.49-8.73-.19-13.05Z"/><path class="cls-4" d="M111.87,337.77l-2.15,11.78c-.7,3.91-1.29,7.82-1.81,11.74-.51,3.92-.89,7.85-1.18,11.8-.24,3.95-.48,7.91-.4,11.93-1.05-3.89-1.47-7.95-1.56-11.98-.11-4.04,.18-8.07,.65-12.08,.58-3.99,1.29-7.97,2.4-11.84,1.02-3.89,2.43-7.68,4.05-11.36Z"/><path class="cls-4" d="M114.73,325.8c.77,.73,.83,1.17,.73,1.54-.18,.34-.53,.62-1.6,.6-.78-.73-.84-1.17-.73-1.54,.18-.34,.54-.61,1.6-.6Z"/><path class="cls-2" d="M210.39,370.27c3.18-1.61,7.16-.17,8.88,3.22s.54,7.45-2.65,9.07c-1.47,.75-3.11,.84-4.61,.38,.52-.1,1.02-.26,1.51-.51,2.87-1.45,3.94-5.13,2.39-8.19-1.26-2.49-3.88-3.82-6.35-3.45,.26-.2,.53-.38,.83-.53Z"/><circle class="cls-2" cx="199.02" cy="374.41" r="2.47"/><circle class="cls-2" cx="180.7" cy="377.65" r="2.74"/><circle class="cls-2" cx="121.39" cy="402.81" r="2.27"/><circle class="cls-2" cx="136.37" cy="414.4" r="3.09"/><polygon class="cls-2" points="193.78 384.19 196.01 391.23 203.06 393.47 196.01 395.71 193.78 402.75 191.54 395.71 184.5 393.47 191.54 391.23 193.78 384.19"/><polygon class="cls-2" points="134.07 384.19 135.78 389.56 141.15 391.27 135.78 392.97 134.07 398.34 132.37 392.97 127 391.27 132.37 389.56 134.07 384.19"/><polygon class="cls-2" points="119.42 413.57 120.74 417.74 124.92 419.07 120.74 420.39 119.42 424.57 118.09 420.39 113.92 419.07 118.09 417.74 119.42 413.57"/><g><path class="cls-4" d="M208.29,496.15c-3.62,1.86-7.71,2.89-12.05,2.89-12.6,0-23.15-8.74-25.94-20.49,4.02-3.36,9.19-5.37,14.84-5.37,12.73,0,23.05,10.27,23.15,22.97Z"/><path class="cls-4" d="M196.24,500.3c-12.99,0-24.16-8.82-27.16-21.45-.11-.46,.05-.95,.41-1.25,4.36-3.65,9.92-5.66,15.64-5.66,13.35,0,24.3,10.86,24.41,24.22,0,.47-.26,.91-.68,1.13-3.91,2.01-8.16,3.03-12.62,3.03Zm-24.52-21.27c2.99,11.09,12.96,18.76,24.52,18.76,3.8,0,7.42-.81,10.78-2.4-.5-11.62-10.16-20.95-21.87-20.95-4.88,0-9.61,1.62-13.42,4.59Z"/></g></g><g><g><path class="cls-3" d="M174.47,516.94c-2.03-.55-4.14-.85-6.35-.85-13.28,0-24.05,10.77-24.05,24.05,0,4.77,1.38,9.19,3.79,12.93-25.86-18.3-42.23-23.07-52.53-35.08-16.77-16.77-17.47-32.49-17.47-32.49,2.86-9.62,13.91-8.66,13.91-8.66,6.08,14.61,20.69,23.43,20.69,23.43,17.85,11.52,50.04,7.83,62.02,16.67Z"/><path class="cls-4" d="M147.86,554.33c-.25,0-.51-.08-.73-.23-11.08-7.84-20.22-13.08-28.29-17.7-10.31-5.91-18.46-10.58-24.47-17.58-16.86-16.85-17.75-32.59-17.78-33.25,0-.14,.01-.28,.05-.41,3.12-10.48,15.1-9.57,15.22-9.56,.47,.04,.87,.34,1.05,.77,5.84,14.04,20.04,22.75,20.18,22.83,9.24,5.97,22.81,7.82,34.77,9.45,11.03,1.51,21.44,2.93,27.34,7.28,.49,.36,.65,1.01,.38,1.56-.26,.54-.88,.82-1.46,.66-1.98-.54-4.01-.81-6.02-.81-12.57,0-22.8,10.23-22.8,22.8,0,4.37,1.24,8.61,3.59,12.25,.32,.51,.25,1.17-.19,1.59-.24,.23-.55,.35-.87,.35Zm-68.73-68.68c.17,1.86,1.92,16.28,17.09,31.46,5.79,6.74,13.37,11.09,23.87,17.1,6.76,3.87,14.96,8.57,24.4,14.99-1.11-2.87-1.68-5.94-1.68-9.06,0-13.66,10.88-24.83,24.43-25.29-5.43-1.76-12.43-2.72-19.7-3.71-12.23-1.67-26.09-3.57-35.76-9.81-.57-.34-14.52-8.88-20.85-23.26h-.07c-2.42,0-9.51,.61-11.73,7.58Z"/></g><g><path class="cls-4" d="M131.84,460.43c0,18.3-11.4,32.46-19.38,39.85,0,0-14.61-8.81-20.69-23.43,0,0-11.05-.95-13.91,8.66,0,0,.7,15.72,17.47,32.49-8.08,8.08-18.08,12.48-24.5,12.48-4.52,0-9.77-2.51-14.64-5.67-3.89-13.11,1.08-28.45,5.85-37.49,4.75-9.04,1.43-22.5,8.44-33.19,7.03-10.7,21.29-1.66,30.46-1.66s21.77-5.35,29.9,.1c.65,2.28,1,4.87,1,7.86Z"/><path class="cls-4" d="M70.83,531.73c-4.16,0-9.32-1.98-15.32-5.88-.25-.16-.43-.41-.52-.69-3.81-12.82,.57-28.26,5.94-38.43,2-3.81,2.5-8.58,3.03-13.62,.7-6.63,1.41-13.49,5.47-19.67,5.4-8.22,14.46-5.9,22.46-3.87,3.31,.85,6.44,1.64,9.05,1.64,2.85,0,6.05-.54,9.45-1.11,7.48-1.25,15.22-2.55,21.15,1.42,.25,.16,.43,.41,.51,.7,.71,2.48,1.05,5.16,1.05,8.2,0,19.55-12.4,33.93-19.79,40.77-.41,.38-1.02,.44-1.5,.15-.6-.36-14.56-8.9-20.88-23.28h-.07c-2.42,0-9.51,.61-11.73,7.58,.17,1.86,1.92,16.28,17.09,31.46,.49,.49,.49,1.28,0,1.78-8.87,8.87-19.15,12.85-25.39,12.85Zm-13.56-7.73c5.42,3.46,9.98,5.22,13.56,5.22,5.35,0,14.61-3.53,22.72-11.24-16.06-16.57-16.92-31.76-16.95-32.41,0-.14,.01-.28,.05-.41,3.12-10.48,15.1-9.57,15.22-9.56,.47,.04,.87,.34,1.05,.77,5.04,12.12,16.3,20.26,19.39,22.32,7.14-6.79,18.27-20.27,18.27-38.26,0-2.62-.27-4.94-.83-7.06-5.08-3.11-12.13-1.93-18.95-.78-3.5,.59-6.81,1.14-9.87,1.14s-6.2-.84-9.67-1.72c-7.53-1.92-15.32-3.91-19.74,2.81-3.72,5.68-4.4,12.22-5.07,18.56-.56,5.29-1.08,10.29-3.31,14.53-5.08,9.62-9.25,24.09-5.89,36.1Z"/></g><g><path class="cls-2" d="M130.84,452.57c-8.13-5.45-20.74-.1-29.9-.1s-23.43-9.04-30.46,1.66c-7.01,10.7-3.69,24.15-8.44,33.19-4.77,9.04-9.74,24.38-5.85,37.49-4.47-2.89-8.64-6.35-11.62-8.96-6.3-5.47-17.6-24-17.6-41.03s5.1-26.64,7.71-34.12c2.64-7.51,8.34-19.16,24.15-19.16s19.51,3.57,29.25,8.44c9.77,4.9,17.25,5.25,23.68,6.68,5.37,1.18,15.82,4.22,19.08,15.92Z"/><path class="cls-4" d="M56.19,526.06c-.24,0-.47-.07-.68-.2-3.58-2.31-7.43-5.28-11.77-9.07-6.47-5.62-18.03-24.45-18.03-41.97,0-14.31,3.62-23.66,6.26-30.49,.55-1.43,1.07-2.77,1.52-4.04,1.74-4.95,7.02-20,25.34-20,13.6,0,18.61,2.67,25.55,6.35,1.32,.7,2.71,1.44,4.26,2.22,7.32,3.67,13.32,4.73,18.63,5.66,1.66,.29,3.24,.57,4.76,.91,4.04,.89,16.33,3.58,20.02,16.81,.14,.51-.05,1.05-.47,1.36-.43,.31-1,.32-1.43,.02-5.1-3.41-12.34-2.2-19.34-1.03-3.5,.59-6.81,1.14-9.87,1.14s-6.2-.84-9.67-1.72c-7.53-1.92-15.32-3.91-19.74,2.81-3.72,5.68-4.4,12.22-5.07,18.56-.56,5.29-1.08,10.29-3.31,14.53-5.14,9.74-9.35,24.45-5.76,36.54,.15,.51-.03,1.05-.45,1.36-.22,.17-.49,.25-.75,.25Zm2.64-103.27c-11.13,0-18.64,5.99-22.97,18.32-.45,1.3-.98,2.66-1.54,4.12-2.72,7.01-6.09,15.75-6.09,29.58,0,16.53,11.18,34.88,17.17,40.08,3.19,2.79,6.1,5.11,8.82,7.05-2.3-12.11,1.8-25.87,6.72-35.21,2-3.81,2.5-8.58,3.03-13.62,.7-6.63,1.41-13.49,5.47-19.67,5.4-8.22,14.46-5.9,22.46-3.87,3.31,.85,6.44,1.64,9.05,1.64,2.85,0,6.05-.54,9.45-1.11,6.3-1.05,12.78-2.14,18.2-.09-4.15-9.3-13.75-11.4-17.1-12.14-1.49-.33-3.04-.61-4.65-.89-5.47-.97-11.67-2.06-19.31-5.89-1.57-.78-2.98-1.54-4.32-2.25-6.87-3.65-11.4-6.06-24.37-6.06Z"/></g><path class="cls-4" d="M130.86,453.85c-.69,0-1.28-.59-1.28-1.28s.56-1.26,1.26-1.26c.34,0,.65,.14,.88,.36,.25,.23,.4,.56,.4,.92,0,.69-.56,1.26-1.26,1.26Z"/><g><path class="cls-1" d="M192.2,540.14c0,6.98-2.96,13.23-7.68,17.65-4.29,3.99-10.07,6.43-16.4,6.43-8.54,0-16.02-4.44-20.26-11.15-1.16-1.81-2.08-3.77-2.71-5.85-.7-2.23-1.08-4.62-1.08-7.08,0-13.28,10.77-24.05,24.05-24.05,2.21,0,4.32,.3,6.35,.85,10.22,2.79,17.73,12.1,17.73,23.2Z"/><path class="cls-4" d="M168.12,565.48c-8.7,0-16.67-4.39-21.32-11.73-1.25-1.95-2.21-4.03-2.85-6.16-.75-2.38-1.13-4.89-1.13-7.44,0-13.96,11.35-25.31,25.31-25.31,2.24,0,4.49,.3,6.68,.9,10.98,3,18.65,13.03,18.65,24.41,0,7.09-2.87,13.69-8.08,18.57-4.69,4.36-10.82,6.76-17.25,6.76Zm0-48.13c-12.57,0-22.8,10.23-22.8,22.8,0,2.29,.34,4.55,1.02,6.7,.58,1.92,1.44,3.79,2.57,5.55,4.19,6.62,11.37,10.57,19.2,10.57,5.8,0,11.32-2.16,15.54-6.09,4.69-4.4,7.28-10.34,7.28-16.73,0-10.25-6.91-19.29-16.8-21.99-1.98-.54-4-.81-6.02-.81Z"/></g><g><path class="cls-4" d="M184.79,554.38c0,1.16-.1,2.31-.28,3.41-4.29,3.99-10.07,6.43-16.4,6.43-8.54,0-16.02-4.44-20.26-11.15-1.16-1.81-2.08-3.77-2.71-5.85,2.91-7.78,10.39-13.31,19.18-13.31,11.3,0,20.46,9.16,20.46,20.46Z"/><path class="cls-4" d="M168.12,565.48c-8.7,0-16.67-4.39-21.32-11.73-1.25-1.95-2.21-4.03-2.85-6.16-.08-.26-.07-.54,.03-.8,3.16-8.45,11.34-14.12,20.36-14.12,11.98,0,21.72,9.74,21.72,21.72,0,1.18-.1,2.4-.29,3.61-.04,.28-.18,.53-.38,.72-4.69,4.36-10.82,6.76-17.25,6.76Zm-21.64-18.21c.57,1.77,1.39,3.49,2.44,5.13,4.19,6.62,11.37,10.57,19.2,10.57,5.65,0,11.04-2.05,15.22-5.8,.13-.94,.2-1.88,.2-2.79,0-10.59-8.62-19.21-19.21-19.21-7.83,0-14.95,4.84-17.85,12.1Zm38.04,10.53h0Z"/></g><polygon class="cls-2" points="83.36 455.24 85.43 461.75 91.94 463.82 85.43 465.89 83.36 472.4 81.29 465.89 74.78 463.82 81.29 461.75 83.36 455.24"/><polygon class="cls-2" points="75.13 510.57 76.74 515.67 81.84 517.28 76.74 518.9 75.13 523.99 73.51 518.9 68.42 517.28 73.51 515.67 75.13 510.57"/><polygon class="cls-2" points="160.4 538.52 161.73 542.71 165.92 544.04 161.73 545.38 160.4 549.57 159.06 545.38 154.87 544.04 159.06 542.71 160.4 538.52"/><polygon class="cls-2" points="171.59 551.24 172.5 554.1 175.37 555.01 172.5 555.92 171.59 558.79 170.68 555.92 167.81 555.01 170.68 554.1 171.59 551.24"/><path class="cls-2" d="M117.68,478.93c-1.56,2.11-4.07,3.46-6.88,3.46-4.7,0-8.51-3.82-8.51-8.54,0-3.74,2.41-6.9,5.77-8.06-1.03,1.41-1.66,3.16-1.66,5.05,0,4.72,3.82,8.54,8.51,8.54,.98,0,1.91-.15,2.76-.45Z"/><ellipse class="cls-2" cx="122.03" cy="461.15" rx="2.84" ry="3.08"/><path class="cls-2" d="M73.31,478.29c0,1.39,.32,2.52-.94,2.52s-2.3-1.13-2.3-2.52,1.03-2.52,2.3-2.52,.94,1.13,.94,2.52Z"/><path class="cls-2" d="M69.69,502.85c0,1.94-.2,3.5-1.96,3.5s-3.19-1.57-3.19-3.5,1.43-3.5,3.19-3.5,1.96,1.57,1.96,3.5Z"/><path class="cls-2" d="M173.35,541.6c1.28,0,1.71,1.11,1.71,2.49,0,1.37-.44,2.49-1.71,2.49s-2.31-1.11-2.31-2.49c0-1.37,1.03-2.49,2.31-2.49Z"/><path class="cls-2" d="M161.55,556.99c0,1.28-1.11,1.71-2.49,1.71s-2.49-.44-2.49-1.71c0-1.28,1.11-2.31,2.49-2.31s2.49,1.03,2.49,2.31Z"/><path class="cls-4" d="M63.19,427.2c2.23-.48,4.6-.11,6.81,.53,2.2,.7,4.3,1.64,6.32,2.66,4.06,2.05,7.89,4.38,11.83,6.43,3.92,2.08,7.95,3.89,12.16,5.12,4.21,1.21,8.61,1.82,13.15,1.59-4.37,1.2-9.1,1.27-13.61,.32-4.53-.9-8.82-2.71-12.86-4.81-4.02-2.15-7.82-4.59-11.61-6.94-3.81-2.26-7.61-4.74-12.18-4.9Z"/></g><g><g><path class="cls-3" d="M329.75,539.69s-26.84,29.79-59.94,29.79-59.94-29.79-59.94-29.79c0,0,26.84-29.79,59.94-29.79s59.94,29.79,59.94,29.79Z"/><path class="cls-4" d="M269.81,570.74c-33.28,0-60.6-29.9-60.87-30.21l-.76-.84,.76-.84c.27-.3,27.59-30.21,60.87-30.21s60.6,29.91,60.87,30.21l.76,.84-.76,.84c-.27,.3-27.6,30.21-60.87,30.21Zm-58.21-31.05c4.66,4.81,29.17,28.54,58.21,28.54s53.55-23.73,58.21-28.54c-4.66-4.81-29.17-28.54-58.21-28.54s-53.55,23.73-58.21,28.54Z"/></g><g><path class="cls-1" d="M318.94,539.69c-5.85,5.25-16.22,13.36-28.77,18.23-6.33,2.44-13.21,4.04-20.36,4.04s-14.04-1.61-20.36-4.07c-12.55-4.85-22.9-12.96-28.77-18.2,5.77-5.17,15.94-13.13,28.25-18,6.48-2.54,13.53-4.24,20.89-4.24s14.41,1.71,20.89,4.24c12.3,4.87,22.47,12.83,28.25,18Z"/><path class="cls-4" d="M269.81,563.22c-6.73,0-13.73-1.4-20.82-4.15-12.4-4.78-22.7-12.67-29.15-18.44l-1.05-.94,1.05-.93c6.3-5.64,16.38-13.39,28.62-18.23,7.34-2.87,14.52-4.33,21.35-4.33s14.01,1.46,21.35,4.33c12.24,4.85,22.32,12.59,28.63,18.24l1.04,.93-1.04,.93c-5.24,4.71-16,13.36-29.16,18.47-7.12,2.74-14.12,4.13-20.82,4.13Zm-47.24-23.53c6.34,5.52,15.94,12.63,27.33,17.03,6.79,2.65,13.49,3.98,19.91,3.98s13.09-1.33,19.91-3.96c11.96-4.64,21.91-12.33,27.33-17.06-5.34-4.65-15.11-12.2-26.81-16.83-7.04-2.76-13.91-4.15-20.43-4.15s-13.39,1.4-20.43,4.16c-11.69,4.63-21.47,12.18-26.81,16.83Z"/></g><g><path class="cls-4" d="M294.87,539.31c0,6.93-1.76,13.36-4.7,18.6-6.33,2.44-13.21,4.04-20.36,4.04s-14.04-1.61-20.36-4.07c-2.96-5.25-4.7-11.65-4.7-18.58,0-6.5,1.53-12.58,4.17-17.63,6.48-2.54,13.53-4.24,20.89-4.24s14.41,1.71,20.89,4.24c2.64,5.05,4.17,11.12,4.17,17.63Z"/><path class="cls-4" d="M269.81,563.22c-6.73,0-13.73-1.4-20.82-4.15l-.42-.16-.22-.39c-3.18-5.63-4.86-12.26-4.86-19.2,0-6.51,1.49-12.81,4.31-18.21l.22-.42,.44-.17c7.34-2.87,14.52-4.33,21.35-4.33s14.01,1.46,21.35,4.33l.44,.17,.22,.42c2.82,5.4,4.31,11.7,4.31,18.21,0,6.9-1.68,13.54-4.85,19.22l-.22,.39-.42,.16c-7.11,2.74-14.11,4.12-20.81,4.12Zm-19.49-6.33c6.65,2.54,13.2,3.82,19.49,3.82s12.81-1.28,19.48-3.8c2.83-5.21,4.32-11.29,4.32-17.59,0-5.94-1.32-11.68-3.81-16.63-6.89-2.64-13.61-3.98-19.99-3.98s-13.1,1.34-19.99,3.98c-2.49,4.95-3.81,10.69-3.81,16.63,0,6.34,1.49,12.4,4.32,17.57Z"/></g><path class="cls-3" d="M269.1,556.33c-1.92-8.09-4.41-15.58-10.38-17.33,6.83-2.43,9.07-8.66,10.38-15.61,.15-.79,1.3-.79,1.45,0,1.31,6.94,3.54,13.18,10.38,15.61-5.97,1.76-8.46,9.25-10.38,17.33-.18,.76-1.25,.76-1.43,0Z"/></g><g><path class="cls-3" d="M270.41,477.91c1.05,1.95,1.57,3.9,1.97,5.86,.37,1.95,.54,3.9,.54,5.86,0,1.95-.17,3.9-.54,5.86-.4,1.95-.92,3.9-1.97,5.86-1.05-1.95-1.58-3.9-1.97-5.86-.37-1.95-.54-3.9-.54-5.86,0-1.95,.17-3.9,.54-5.86,.4-1.95,.92-3.9,1.97-5.86Z"/><path class="cls-3" d="M285.99,503.72c-.38-2.09-.27-4-.05-5.88,.26-1.87,.7-3.67,1.3-5.41,.6-1.75,1.37-3.44,2.32-5.06,.98-1.62,2.08-3.19,3.68-4.59,.39,2.09,.28,4.01,.05,5.88-.26,1.87-.7,3.67-1.31,5.41-.61,1.74-1.37,3.43-2.33,5.06-.98,1.61-2.08,3.19-3.67,4.59Z"/><path class="cls-3" d="M314.77,493.24c-.23,2.02-.88,3.73-1.62,5.36-.77,1.61-1.69,3.1-2.75,4.49-1.06,1.39-2.25,2.67-3.61,3.84-1.38,1.15-2.85,2.22-4.75,2.97,.22-2.03,.87-3.73,1.61-5.36,.77-1.61,1.69-3.1,2.76-4.49,1.06-1.39,2.26-2.67,3.61-3.84,1.38-1.15,2.85-2.22,4.74-2.97Z"/><path class="cls-3" d="M317.44,519.89c.49-1.71,1.31-3,2.2-4.2,.91-1.17,1.94-2.19,3.07-3.07,1.13-.89,2.37-1.63,3.73-2.22,1.38-.57,2.84-1.04,4.62-1.09-.49,1.71-1.3,3.01-2.19,4.21-.91,1.17-1.94,2.19-3.08,3.07-1.14,.88-2.38,1.63-3.74,2.22-1.38,.57-2.84,1.04-4.61,1.09Z"/><path class="cls-3" d="M342.48,530.12c-.54,1.26-1.23,2.01-1.95,2.65-.73,.61-1.53,1.03-2.37,1.29-.84,.26-1.73,.35-2.68,.26-.96-.12-1.95-.37-3.1-1.11,.53-1.26,1.22-2.02,1.95-2.66,.73-.61,1.53-1.03,2.37-1.29,.84-.25,1.74-.35,2.69-.25,.96,.13,1.95,.37,3.1,1.11Z"/><path class="cls-3" d="M246.74,481.95c1.61,1.48,2.71,3.12,3.71,4.81,.96,1.7,1.74,3.45,2.36,5.27,.62,1.81,1.07,3.68,1.34,5.61,.24,1.94,.36,3.92-.03,6.07-1.61-1.48-2.72-3.12-3.71-4.81-.96-1.7-1.74-3.45-2.35-5.27-.61-1.81-1.06-3.68-1.33-5.62-.24-1.94-.36-3.92,.02-6.07Z"/><path class="cls-3" d="M225.57,492.83c1.88,.75,3.33,1.82,4.69,2.96,1.33,1.16,2.51,2.44,3.56,3.82,1.04,1.38,1.95,2.87,2.69,4.47,.72,1.62,1.34,3.32,1.54,5.33-1.88-.75-3.34-1.82-4.7-2.96-1.33-1.16-2.51-2.44-3.55-3.83-1.04-1.38-1.94-2.87-2.69-4.47-.72-1.62-1.35-3.32-1.55-5.33Z"/><path class="cls-3" d="M208.8,508.83c1.92,.15,3.53,.72,5.06,1.38,1.51,.69,2.9,1.53,4.19,2.51,1.29,.98,2.48,2.1,3.54,3.37,1.05,1.3,2.02,2.7,2.67,4.51-1.93-.14-3.53-.71-5.06-1.37-1.51-.69-2.9-1.53-4.19-2.52-1.29-.98-2.47-2.1-3.54-3.38-1.05-1.3-2.02-2.7-2.67-4.51Z"/><path class="cls-3" d="M197.98,530.59c1.18-.72,2.2-.94,3.18-1.04,.97-.07,1.88,.04,2.75,.31,.86,.27,1.67,.71,2.41,1.34,.74,.66,1.44,1.43,1.97,2.71-1.18,.72-2.2,.95-3.18,1.05-.97,.07-1.88-.04-2.74-.32-.86-.28-1.67-.72-2.41-1.35-.74-.66-1.44-1.43-1.98-2.7Z"/></g><path class="cls-3" d="M270.83,581.07c-.32,0-.64,0-.96,0-20.37-.26-39.46-8.77-52.37-23.32-.46-.52-.41-1.31,.11-1.77,.52-.46,1.31-.41,1.77,.11,12.44,14.03,30.85,22.23,50.52,22.48,19.33,.34,37.13-7.28,50.14-21.22,.47-.51,1.27-.53,1.77-.06,.51,.47,.53,1.27,.06,1.77-13.28,14.23-31.38,22.03-51.04,22.03Z"/><g><path class="cls-3" d="M49.64,394.52h-.02c-.69,0-1.25-.58-1.24-1.27,.81-61.84,11.47-125.22,29.25-173.89,.24-.65,.96-.99,1.61-.75,.65,.24,.99,.96,.75,1.61-17.69,48.42-28.3,111.5-29.1,173.07,0,.69-.57,1.24-1.26,1.24Z"/><path class="cls-3" d="M50.45,370.28c-.62,0-1.16-.46-1.24-1.09-2.51-18.4-4.7-24.74-5.28-26.21-3.63-1.79-25.59-14.76-29.3-67.44-.04-.52,.25-1.01,.72-1.23,.48-.22,1.03-.12,1.4,.24,.28,.27,28.31,27.95,29.38,67.2,.59,1.34,2.9,7.56,5.56,27.1,.09,.69-.39,1.32-1.08,1.41-.06,0-.11,.01-.17,.01Zm-33.03-91.32c3.85,42.87,20.54,57.23,26.13,60.89-1.56-30.42-19.52-53.41-26.13-60.89Z"/><path class="cls-3" d="M44.03,342.87c-.49,0-.95-.29-1.15-.76l-28.15-66.15c-.27-.64,.03-1.38,.66-1.65,.64-.27,1.37,.02,1.65,.66l28.15,66.15c.27,.64-.03,1.37-.66,1.65-.16,.07-.33,.1-.49,.1Z"/><path class="cls-3" d="M54.92,322.38c-.67,0-1.23-.53-1.25-1.21l-.11-3.24c-.25-7.66-.59-17.83-1.49-29.09-3.74-3.1-29.56-26.58-21.11-77.96,.08-.51,.46-.91,.96-1.02,.49-.12,1.02,.09,1.31,.51,20.26,29.24,22,82.08,22.84,107.48l.11,3.24c.02,.69-.52,1.27-1.21,1.3-.01,0-.03,0-.04,0Zm-21.97-107.88c-5.92,42.42,12.27,64.32,18.81,70.68-2.14-23.84-6.96-51.68-18.81-70.68Z"/><path class="cls-3" d="M51.29,287.75c-.51,0-.98-.31-1.17-.81-.15-.4-15.39-40.47-19.17-75.73-.07-.69,.43-1.31,1.11-1.38,.7-.07,1.31,.43,1.38,1.11,3.74,34.93,18.86,74.7,19.01,75.1,.25,.65-.08,1.37-.72,1.62-.15,.06-.3,.08-.45,.08Z"/><path class="cls-3" d="M63.53,273.92s-.08,0-.12,0c-.69-.06-1.2-.67-1.14-1.36,1.6-17.5-2.24-33.19-2.7-34.98-1.7-2.82-21.95-38.08-4.53-86.45,.17-.48,.61-.8,1.11-.83,.52-.03,.98,.25,1.2,.71,.21,.44,20.86,43.91,4.71,86.15,.67,2.69,4.31,18.31,2.72,35.62-.06,.65-.61,1.14-1.25,1.14Zm-7.17-118.91c-13.35,40.32-.2,70.69,4.15,79.08,12.07-34.3-.03-68.99-4.15-79.08Z"/><path class="cls-3" d="M60.74,238.33c-.64,0-1.18-.48-1.25-1.13-.03-.32-3.35-32.54-4.53-85.63-.01-.69,.53-1.27,1.23-1.28,.79,.05,1.27,.54,1.28,1.23,1.17,52.98,4.48,85.1,4.51,85.42,.07,.69-.43,1.31-1.12,1.38-.04,0-.09,0-.13,0Z"/><path class="cls-3" d="M66.65,260.86c-.27,0-.54-.09-.77-.27-.55-.43-.64-1.22-.21-1.76,10.18-12.98,13.33-16.31,14.19-17.13,20.35-42.64,66.78-57.85,67.25-58,.51-.16,1.05,0,1.38,.43,.32,.42,.35,.99,.07,1.44-31.97,50.51-63.05,57.38-67.1,58.07-.72,.71-3.8,3.98-13.81,16.73-.25,.32-.62,.48-.99,.48Zm77.74-73.47c-10.83,4.31-44.21,19.86-61.22,53.27,7.99-2.2,34.28-12.24,61.22-53.27Z"/><path class="cls-3" d="M81.74,243.56c-.28,0-.56-.09-.79-.28-.54-.44-.62-1.23-.19-1.77,.28-.34,28.1-34.53,66.06-57.69,.59-.36,1.36-.18,1.72,.42,.36,.59,.17,1.36-.42,1.72-37.58,22.92-65.14,56.78-65.41,57.12-.25,.31-.61,.47-.98,.47Z"/><path class="cls-3" d="M57.06,307.79c-.29,0-.59-.1-.83-.31-.52-.46-.58-1.25-.12-1.77l13.04-14.94c23.74-43.35,58.68-56.01,59.03-56.13,.47-.17,.99-.04,1.34,.33,.34,.37,.43,.9,.23,1.36-19.48,44.55-55.1,54.63-58.28,55.44-.06,.11-.12,.22-.18,.32-.04,.08-.1,.15-.16,.22l-13.13,15.04c-.25,.28-.6,.43-.95,.43Zm69.08-69.57c-8.45,3.86-33.76,17.58-52.88,50.39,8.47-2.82,36.01-14.44,52.88-50.39Z"/><path class="cls-3" d="M70.97,291.85c-.33,0-.66-.13-.91-.39-.48-.5-.46-1.3,.05-1.77l57.63-54.77c.5-.48,1.3-.46,1.77,.05s.46,1.3-.05,1.77l-57.63,54.77c-.24,.23-.55,.35-.86,.35Z"/><path class="cls-3" d="M50.14,376.89c-.08,0-.16,0-.24-.02-.68-.13-1.12-.79-.99-1.47,8.21-42.07,33.67-69.49,52.98-80.19,.45-.25,1.01-.2,1.4,.13,.4,.33,.56,.86,.4,1.35-14.51,45.31-42.23,57.34-46.72,59.02-2.29,6.28-4.2,13.01-5.59,20.17-.12,.6-.64,1.02-1.23,1.02Zm50.1-77.81c-14.45,8.99-31.61,27.04-42.02,53.32,7.5-3.59,29.37-16.82,42.02-53.32Z"/><path class="cls-3" d="M58.36,354.99c-.23,0-.47-.06-.68-.2-.58-.38-.75-1.15-.38-1.74,21.82-33.95,44.05-57.39,44.27-57.62,.48-.5,1.27-.52,1.78-.04,.5,.48,.52,1.27,.04,1.78-.22,.23-22.3,23.51-43.98,57.25-.24,.37-.64,.58-1.06,.58Z"/><path class="cls-3" d="M77.93,223.51c-.17,0-.35-.04-.51-.11-.48-.21-.78-.7-.74-1.22,3.11-50.68,47.26-83.16,47.71-83.48,.44-.32,1.04-.32,1.48,0,.44,.32,.62,.89,.45,1.41-17.08,51.53-47.18,82.72-47.49,83.03-.24,.25-.57,.38-.9,.38Zm44.61-80.13c-9.94,8.35-39.02,35.91-43.06,75.3,7.25-8.27,28.94-35.17,43.06-75.3Z"/><path class="cls-3" d="M78.82,221.05c-.11,0-.22-.01-.33-.04-.67-.18-1.07-.87-.89-1.54,.1-.36,10.04-36.28,46.55-80.55,.44-.53,1.23-.61,1.77-.17,.54,.44,.61,1.23,.17,1.77-36.13,43.82-45.96,79.26-46.06,79.61-.15,.56-.66,.93-1.21,.93Z"/><path class="cls-3" d="M27.05,376.37c-3.97,0-7.2-3.23-7.2-7.2s3.23-7.2,7.2-7.2,7.2,3.23,7.2,7.2-3.23,7.2-7.2,7.2Zm0-11.89c-2.59,0-4.69,2.1-4.69,4.69s2.1,4.69,4.69,4.69,4.69-2.1,4.69-4.69-2.1-4.69-4.69-4.69Z"/><path class="cls-3" d="M75.6,398.49c-3.71,0-6.73-3.02-6.73-6.73s3.02-6.73,6.73-6.73,6.73,3.02,6.73,6.73-3.02,6.73-6.73,6.73Zm0-10.95c-2.33,0-4.22,1.89-4.22,4.22s1.89,4.22,4.22,4.22,4.22-1.89,4.22-4.22-1.89-4.22-4.22-4.22Z"/><path class="cls-3" d="M25.1,421.37c-3.36,0-6.08-2.73-6.08-6.09s2.73-6.08,6.08-6.08,6.08,2.73,6.08,6.08-2.73,6.09-6.08,6.09Zm0-9.66c-1.97,0-3.57,1.6-3.57,3.57s1.6,3.57,3.57,3.57,3.57-1.6,3.57-3.57-1.6-3.57-3.57-3.57Z"/><path class="cls-3" d="M136.23,173.61c-3.27,0-5.92-2.66-5.92-5.92s2.66-5.92,5.92-5.92,5.92,2.66,5.92,5.92-2.66,5.92-5.92,5.92Zm0-9.34c-1.88,0-3.41,1.53-3.41,3.41s1.53,3.41,3.41,3.41,3.41-1.53,3.41-3.41-1.53-3.41-3.41-3.41Z"/><path class="cls-3" d="M77.58,169.16c-3.69,0-6.69-3-6.69-6.69s3-6.69,6.69-6.69,6.69,3,6.69,6.69-3,6.69-6.69,6.69Zm0-10.87c-2.3,0-4.18,1.88-4.18,4.18s1.88,4.18,4.18,4.18,4.18-1.88,4.18-4.18-1.88-4.18-4.18-4.18Z"/><path class="cls-3" d="M78.82,130.22c-2.9,0-5.26-2.36-5.26-5.26s2.36-5.26,5.26-5.26,5.26,2.36,5.26,5.26-2.36,5.26-5.26,5.26Zm0-8c-1.51,0-2.74,1.23-2.74,2.74s1.23,2.74,2.74,2.74,2.74-1.23,2.74-2.74-1.23-2.74-2.74-2.74Z"/></g><g><circle class="cls-3" cx="268.54" cy="69.46" r="28.38" transform="translate(-8.78 63.56) rotate(-13.28)"/><path class="cls-3" d="M326.25,48.48c-.25-.65-.97-.97-1.62-.73l-24.42,9.28c-.65,.25-.97,.97-.73,1.62,.19,.5,.67,.81,1.17,.81,.15,0,.3-.03,.45-.08l24.42-9.28c.65-.25,.97-.97,.73-1.62Z"/><path class="cls-3" d="M341.08,41.81l-12.34,4.76c-.65,.25-.97,.98-.72,1.62,.19,.5,.67,.8,1.17,.8,.15,0,.3-.03,.45-.08l12.34-4.76c.65-.25,.97-.98,.72-1.62-.25-.65-.98-.97-1.62-.72Z"/><path class="cls-3" d="M311.79,44.81c.23,.39,.65,.61,1.08,.61,.22,0,.44-.06,.64-.18l27.91-16.57c.6-.35,.79-1.12,.44-1.72-.35-.6-1.13-.8-1.72-.44l-27.91,16.57c-.6,.35-.79,1.12-.44,1.72Z"/><path class="cls-3" d="M294.38,48.23c.25,.3,.6,.45,.96,.45,.28,0,.57-.1,.81-.29l18-15.14c.53-.45,.6-1.24,.15-1.77s-1.24-.6-1.77-.15l-18,15.14c-.53,.45-.6,1.24-.15,1.77Z"/><path class="cls-3" d="M284.97,40.94c.2,.11,.41,.16,.62,.16,.44,0,.86-.23,1.09-.64l11.34-19.94c.34-.6,.13-1.37-.47-1.71-.6-.34-1.37-.13-1.71,.47l-11.34,19.94c-.34,.6-.13,1.37,.47,1.71Z"/><path class="cls-3" d="M274.68,36.69c.07,.01,.14,.02,.21,.02,.6,0,1.14-.44,1.24-1.05l1.74-10.55c.11-.68-.35-1.33-1.03-1.44-.69-.12-1.33,.35-1.44,1.03l-1.74,10.55c-.11,.68,.35,1.33,1.03,1.44Z"/><path class="cls-3" d="M262.74,36.7c.08,0,.16,0,.24-.02,.68-.13,1.12-.79,.99-1.47l-2.08-10.55c-.13-.68-.8-1.13-1.47-.99-.68,.13-1.12,.79-.99,1.47l2.08,10.55c.12,.6,.64,1.01,1.23,1.01Z"/><path class="cls-3" d="M250.35,40.04c.23,.4,.65,.62,1.08,.62,.21,0,.43-.06,.63-.17,.6-.35,.8-1.12,.45-1.72l-11.28-19.33c-.35-.6-1.12-.8-1.72-.45-.6,.35-.8,1.12-.45,1.72l11.28,19.33Z"/><path class="cls-3" d="M241.36,48.46c.23,.2,.52,.29,.8,.29,.36,0,.72-.15,.96-.45,.45-.53,.38-1.32-.16-1.77l-18.61-15.58c-.53-.45-1.33-.37-1.77,.16-.45,.53-.38,1.32,.16,1.77l18.61,15.58Z"/><path class="cls-3" d="M236.33,59.04c.51,0,.99-.32,1.18-.82,.24-.65-.09-1.37-.75-1.61l-24.62-9.04c-.65-.24-1.37,.1-1.61,.75-.24,.65,.09,1.37,.75,1.61l24.62,9.04c.14,.05,.29,.08,.43,.08Z"/><path class="cls-3" d="M219.63,68.21c-.69,0-1.26,.56-1.26,1.26s.56,1.26,1.26,1.26h14.51c.69,0,1.26-.56,1.26-1.26s-.56-1.26-1.26-1.26h-14.51Z"/><path class="cls-3" d="M237.51,80.84c-.24-.65-.95-.98-1.61-.75l-124.22,45.55c-.65,.24-.98,.96-.75,1.61,.19,.51,.67,.82,1.18,.82,.14,0,.29-.02,.43-.08l124.22-45.55c.65-.24,.98-.96,.75-1.61Z"/><path class="cls-3" d="M153.24,133.79l-5.83,3.69c-.58,.37-.76,1.15-.39,1.73,.24,.38,.65,.58,1.06,.58,.23,0,.46-.06,.67-.19l5.83-3.69c.58-.37,.76-1.15,.39-1.73s-1.15-.76-1.73-.39Z"/><path class="cls-3" d="M196.87,110.15c-.35-.6-1.12-.81-1.71-.47l-36.75,21.05c-.6,.35-.81,1.11-.47,1.71,.23,.4,.66,.63,1.09,.63,.21,0,.43-.05,.62-.17l36.75-21.05c.6-.35,.81-1.11,.47-1.71Z"/><path class="cls-3" d="M217.88,97.13l-17.3,9.81c-.6,.34-.82,1.11-.47,1.71,.23,.41,.66,.64,1.09,.64,.21,0,.42-.05,.62-.16l17.3-9.81c.6-.34,.82-1.11,.47-1.71s-1.11-.81-1.71-.47Z"/><path class="cls-3" d="M243.66,90.7c-.44-.53-1.24-.61-1.77-.16l-62.4,51.85c-.53,.44-.61,1.24-.16,1.77,.25,.3,.61,.45,.97,.45,.28,0,.57-.1,.8-.29l62.4-51.85c.53-.44,.61-1.24,.16-1.77Z"/><path class="cls-3" d="M203.77,144.83l-5.31,6.11c-.45,.52-.4,1.32,.12,1.77,.24,.21,.53,.31,.82,.31,.35,0,.7-.15,.95-.43l5.31-6.11c.45-.52,.4-1.32-.12-1.77-.52-.45-1.31-.4-1.77,.12Z"/><path class="cls-3" d="M237.79,106.32c-.53-.44-1.32-.37-1.77,.16l-27.12,32.35c-.45,.53-.38,1.32,.16,1.77,.24,.2,.52,.29,.81,.29,.36,0,.71-.15,.96-.45l27.12-32.35c.45-.53,.38-1.32-.16-1.77Z"/><path class="cls-3" d="M252.2,98.42c-.6-.35-1.37-.14-1.71,.46l-14.59,25.45c-.35,.6-.14,1.37,.46,1.71,.2,.11,.41,.17,.62,.17,.44,0,.86-.23,1.09-.63l14.59-25.45c.35-.6,.14-1.37-.46-1.71Z"/><path class="cls-3" d="M262.71,102.39c-.68-.1-1.33,.36-1.44,1.05l-2.38,15.14c-.11,.69,.36,1.33,1.05,1.44,.07,0,.13,.01,.2,.01,.61,0,1.14-.44,1.24-1.06l2.38-15.14c.11-.69-.36-1.33-1.05-1.44Z"/><path class="cls-3" d="M274.17,102.4c-.68,.13-1.12,.79-.99,1.47l2.86,14.59c.12,.6,.64,1.01,1.23,1.01,.08,0,.16,0,.24-.02,.68-.13,1.12-.79,.99-1.47l-2.86-14.59c-.13-.68-.79-1.12-1.47-.99Z"/><path class="cls-3" d="M286.6,98.96c-.35-.6-1.12-.8-1.72-.45-.6,.35-.8,1.12-.45,1.72l14.91,25.53c.23,.4,.65,.62,1.08,.62,.21,0,.43-.06,.63-.17,.6-.35,.8-1.12,.45-1.72l-14.91-25.53Z"/><path class="cls-3" d="M301.38,106.48c-.44-.53-1.23-.61-1.77-.16-.53,.44-.61,1.23-.16,1.77l27.04,32.51c.25,.3,.61,.45,.97,.45,.28,0,.57-.1,.8-.29,.53-.44,.61-1.23,.16-1.77l-27.04-32.51Z"/><path class="cls-3" d="M333.56,144.92c-.46-.52-1.25-.58-1.77-.13-.52,.45-.58,1.25-.13,1.77l5.55,6.42c.25,.29,.6,.43,.95,.43,.29,0,.58-.1,.82-.31,.52-.45,.58-1.25,.13-1.77l-5.55-6.42Z"/><path class="cls-3" d="M295.36,90.22c-.53-.45-1.32-.37-1.77,.16-.45,.53-.38,1.32,.16,1.77l62.64,52.49c.24,.2,.52,.29,.81,.29,.36,0,.71-.15,.96-.45,.45-.53,.38-1.32-.16-1.77l-62.64-52.49Z"/><path class="cls-3" d="M335.46,109.08c.2,.12,.42,.17,.63,.17,.43,0,.85-.22,1.08-.62,.35-.6,.15-1.37-.45-1.72l-17.36-10.15c-.6-.35-1.37-.15-1.72,.45-.35,.6-.15,1.37,.45,1.72l17.36,10.15Z"/><path class="cls-3" d="M378.5,130.77l-36.79-20.85c-.61-.34-1.37-.13-1.71,.47-.34,.6-.13,1.37,.47,1.71l36.79,20.85c.2,.11,.41,.16,.62,.16,.44,0,.86-.23,1.09-.64,.34-.6,.13-1.37-.47-1.71Z"/><path class="cls-3" d="M389.79,137.13l-6.18-3.73c-.6-.36-1.37-.17-1.72,.43-.36,.59-.17,1.37,.43,1.72l6.18,3.73c.2,.12,.43,.18,.65,.18,.43,0,.84-.22,1.08-.61,.36-.59,.17-1.37-.43-1.72Z"/><path class="cls-3" d="M425.25,125.29l-124.16-45.27c-.65-.24-1.37,.1-1.61,.75-.24,.65,.1,1.37,.75,1.61l124.16,45.27c.14,.05,.29,.08,.43,.08,.51,0,.99-.32,1.18-.83,.24-.65-.1-1.37-.75-1.61Z"/><path class="cls-3" d="M440.53,101.14l-5.79-1.19c-.68-.14-1.34,.3-1.48,.98-.14,.68,.3,1.34,.98,1.48l5.79,1.19c.08,.02,.17,.03,.25,.03,.58,0,1.11-.41,1.23-1,.14-.68-.3-1.34-.98-1.48Z"/><path class="cls-3" d="M426.32,98.36l-50.51-9.36c-.7-.14-1.34,.32-1.46,1.01-.13,.68,.32,1.34,1.01,1.46l50.51,9.36c.08,.01,.15,.02,.23,.02,.59,0,1.12-.42,1.23-1.03,.13-.68-.32-1.34-1.01-1.46Z"/><path class="cls-3" d="M333.7,80.91c-.68-.13-1.34,.33-1.46,1.01-.12,.68,.33,1.34,1.01,1.46l33.06,5.95c.07,.01,.15,.02,.22,.02,.6,0,1.13-.43,1.23-1.03,.12-.68-.33-1.34-1.01-1.46l-33.06-5.95Z"/><path class="cls-3" d="M322.08,69.3c0,.69,.56,1.26,1.26,1.26h76.43c.69,0,1.26-.56,1.26-1.26s-.56-1.26-1.26-1.26h-76.43c-.69,0-1.26,.56-1.26,1.26Z"/><path class="cls-3" d="M303.04,68.05c-.69,0-1.26,.56-1.26,1.26s.56,1.26,1.26,1.26h14.11c.69,0,1.26-.56,1.26-1.26s-.56-1.26-1.26-1.26h-14.11Z"/><path class="cls-3" d="M326.53,60.3c.1,.62,.63,1.06,1.24,1.06,.06,0,.13,0,.2-.01l46.78-7.37c.69-.11,1.15-.75,1.05-1.44-.11-.69-.76-1.15-1.44-1.05l-46.78,7.37c-.69,.11-1.15,.75-1.05,1.44Z"/><path class="cls-3" d="M381.45,52.96c.08,0,.16,0,.24-.02l7.53-1.43c.68-.13,1.13-.79,1-1.47-.13-.68-.77-1.12-1.47-1l-7.53,1.43c-.68,.13-1.13,.79-1,1.47,.11,.6,.64,1.02,1.23,1.02Z"/><path class="cls-3" d="M162.34,53.38l46.98,7.61c.07,.01,.14,.02,.2,.02,.61,0,1.14-.44,1.24-1.05,.11-.68-.35-1.33-1.04-1.44l-46.98-7.61c-.69-.11-1.33,.35-1.44,1.04-.11,.68,.35,1.33,1.04,1.44Z"/><path class="cls-3" d="M148.17,51l7.49,1.31c.07,.01,.15,.02,.22,.02,.6,0,1.13-.43,1.24-1.04,.12-.68-.34-1.33-1.02-1.45l-7.49-1.31c-.69-.12-1.33,.34-1.45,1.02s.34,1.33,1.02,1.45Z"/><path class="cls-3" d="M195,43.66l12.01,4.99c.16,.06,.32,.1,.48,.1,.49,0,.96-.29,1.16-.77,.27-.64-.04-1.37-.68-1.64l-12.01-4.99c-.64-.26-1.37,.04-1.64,.68-.27,.64,.04,1.37,.68,1.64Z"/><path class="cls-3" d="M195.67,28.36l28.3,16.77c.2,.12,.42,.18,.64,.18,.43,0,.85-.22,1.08-.62,.35-.6,.16-1.37-.44-1.72l-28.3-16.77c-.6-.35-1.37-.15-1.72,.44-.35,.6-.16,1.37,.44,1.72Z"/><path class="cls-3" d="M136.73,70.72h77.54c.69,0,1.26-.56,1.26-1.26s-.56-1.26-1.26-1.26h-77.54c-.69,0-1.26,.56-1.26,1.26s.56,1.26,1.26,1.26Z"/><path class="cls-3" d="M170.5,87.42c-.68,.13-1.12,.79-.99,1.47,.12,.6,.64,1.01,1.23,1.01,.08,0,.16,0,.24-.02l33.18-6.54c.68-.13,1.12-.79,.99-1.47-.13-.68-.8-1.12-1.47-.99l-33.18,6.54Z"/><path class="cls-3" d="M160.87,91.31c.68-.13,1.13-.79,.99-1.47-.13-.68-.8-1.14-1.47-.99l-49.83,9.63c-.68,.13-1.13,.79-.99,1.47,.12,.6,.64,1.02,1.23,1.02,.08,0,.16,0,.24-.02l49.83-9.63Z"/><path class="cls-3" d="M102.91,99.44l-6.18,1.43c-.68,.16-1.1,.83-.94,1.51,.13,.58,.65,.97,1.22,.97,.09,0,.19,0,.28-.03l6.18-1.43c.68-.16,1.1-.83,.94-1.51s-.83-1.1-1.51-.94Z"/></g><g><path class="cls-3" d="M487.85,394.52c-.69,0-1.25-.55-1.26-1.24-.8-61.57-11.41-124.65-29.1-173.07-.24-.65,.1-1.37,.75-1.61,.65-.24,1.37,.1,1.61,.75,17.78,48.67,28.45,112.05,29.25,173.89,0,.69-.55,1.26-1.24,1.27h-.02Z"/><path class="cls-3" d="M487.04,370.28c-.06,0-.11,0-.17-.01-.69-.09-1.17-.73-1.08-1.41,2.67-19.54,4.98-25.75,5.56-27.1,1.07-39.25,29.1-66.92,29.38-67.2,.37-.36,.93-.46,1.4-.24,.47,.22,.76,.71,.72,1.23-3.71,52.69-25.67,65.65-29.3,67.44-.58,1.44-2.77,7.77-5.28,26.21-.09,.63-.63,1.09-1.24,1.09Zm33.03-91.32c-6.6,7.48-24.57,30.47-26.13,60.89,5.59-3.66,22.28-18.02,26.13-60.89Z"/><path class="cls-3" d="M493.47,342.87c-.16,0-.33-.03-.49-.1-.64-.27-.94-1.01-.66-1.65l28.15-66.15c.27-.64,1.01-.93,1.65-.66,.64,.27,.94,1.01,.66,1.65l-28.15,66.15c-.2,.48-.67,.76-1.15,.76Z"/><path class="cls-3" d="M482.57,322.38s-.03,0-.04,0c-.69-.02-1.24-.6-1.21-1.3l.11-3.24c.84-25.4,2.58-78.24,22.84-107.48,.29-.42,.81-.62,1.31-.51,.5,.11,.88,.52,.96,1.02,8.45,51.38-17.37,74.87-21.11,77.96-.9,11.26-1.24,21.43-1.49,29.09l-.11,3.24c-.02,.68-.58,1.21-1.25,1.21Zm21.97-107.88c-11.85,18.99-16.67,46.84-18.81,70.68,6.54-6.35,24.73-28.25,18.81-70.68Z"/><path class="cls-3" d="M486.2,287.75c-.15,0-.3-.03-.45-.08-.65-.25-.97-.97-.72-1.62,.15-.4,15.27-40.17,19.01-75.1,.07-.69,.68-1.2,1.38-1.11,.69,.07,1.19,.69,1.11,1.38-3.78,35.26-19.01,75.33-19.17,75.73-.19,.5-.67,.81-1.17,.81Z"/><path class="cls-3" d="M473.97,273.92c-.64,0-1.19-.49-1.25-1.14-1.59-17.31,2.05-32.94,2.72-35.62-16.15-42.24,4.49-85.71,4.71-86.15,.22-.45,.7-.73,1.2-.71,.5,.03,.94,.35,1.11,.83,17.42,48.37-2.83,83.63-4.53,86.45-.46,1.79-4.3,17.5-2.7,34.98,.06,.69-.45,1.3-1.14,1.36-.04,0-.08,0-.12,0Zm7.17-118.91c-4.12,10.09-16.23,44.77-4.15,79.08,4.36-8.38,17.51-38.76,4.15-79.08Z"/><path class="cls-3" d="M476.75,238.33s-.09,0-.13,0c-.69-.07-1.19-.69-1.12-1.38,.03-.32,3.34-32.45,4.51-85.42,.02-.69,.49-1.18,1.28-1.23,.69,.02,1.24,.59,1.23,1.28-1.18,53.09-4.49,85.31-4.53,85.63-.07,.65-.61,1.13-1.25,1.13Z"/><path class="cls-3" d="M470.85,260.86c-.37,0-.74-.16-.99-.48-9.94-12.67-13.05-15.98-13.81-16.73-4.06-.7-35.14-7.58-67.09-58.07-.28-.45-.26-1.02,.07-1.44,.32-.42,.87-.58,1.38-.43,.47,.15,46.89,15.36,67.25,58,.86,.82,4.01,4.15,14.19,17.13,.43,.55,.33,1.34-.21,1.76-.23,.18-.5,.27-.77,.27Zm-77.74-73.47c26.94,41.03,53.22,51.07,61.22,53.27-17.01-33.41-50.39-48.96-61.22-53.27Z"/><path class="cls-3" d="M455.75,243.56c-.37,0-.73-.16-.98-.47-.27-.34-27.84-34.2-65.41-57.12-.59-.36-.78-1.13-.42-1.72,.36-.59,1.13-.78,1.72-.42,37.96,23.16,65.78,57.34,66.06,57.69,.44,.54,.35,1.33-.19,1.77-.23,.19-.51,.28-.79,.28Z"/><path class="cls-3" d="M480.44,307.79c-.35,0-.7-.15-.95-.43l-13.13-15.04c-.06-.07-.11-.14-.16-.22-.06-.11-.12-.22-.18-.32-3.18-.82-38.8-10.89-58.28-55.44-.2-.46-.11-.99,.23-1.36,.34-.37,.87-.5,1.34-.33,.35,.12,35.29,12.78,59.03,56.13l13.04,14.94c.46,.52,.4,1.31-.12,1.77-.24,.21-.53,.31-.83,.31Zm-69.08-69.57c16.87,35.96,44.41,47.58,52.88,50.39-19.12-32.81-44.43-46.53-52.88-50.39Z"/><path class="cls-3" d="M466.52,291.85c-.31,0-.62-.11-.86-.35l-57.63-54.77c-.5-.48-.52-1.27-.05-1.77s1.27-.52,1.77-.05l57.63,54.77c.5,.48,.52,1.27,.05,1.77-.25,.26-.58,.39-.91,.39Z"/><path class="cls-3" d="M487.36,376.89c-.59,0-1.11-.42-1.23-1.02-1.4-7.16-3.3-13.89-5.59-20.17-4.49-1.68-32.21-13.71-46.72-59.02-.16-.49,0-1.03,.4-1.35,.4-.33,.96-.38,1.4-.13,19.31,10.7,44.77,38.12,52.97,80.19,.13,.68-.31,1.34-.99,1.47-.08,.01-.16,.02-.24,.02Zm-50.1-77.81c12.68,36.58,34.53,49.76,42.02,53.33-10.41-26.29-27.57-44.34-42.02-53.33Z"/><path class="cls-3" d="M479.13,354.99c-.41,0-.82-.2-1.06-.58-21.68-33.74-43.76-57.02-43.98-57.25-.48-.5-.46-1.3,.04-1.78,.5-.48,1.3-.46,1.78,.04,.22,.23,22.46,23.67,44.27,57.62,.38,.58,.21,1.36-.38,1.74-.21,.13-.45,.2-.68,.2Z"/><path class="cls-3" d="M459.56,223.51c-.33,0-.66-.13-.9-.38-.3-.31-30.41-31.49-47.49-83.03-.17-.52,0-1.08,.45-1.41,.44-.32,1.03-.32,1.48,0,.45,.32,44.6,32.81,47.71,83.48,.03,.52-.26,1.01-.74,1.22-.16,.07-.34,.11-.51,.11Zm-44.61-80.13c14.12,40.13,35.81,67.03,43.06,75.3-4.04-39.39-33.12-66.95-43.06-75.3Z"/><path class="cls-3" d="M458.67,221.05c-.55,0-1.06-.37-1.21-.93-.09-.35-9.93-35.79-46.06-79.61-.44-.53-.37-1.33,.17-1.77,.53-.44,1.33-.36,1.77,.17,36.5,44.28,46.45,80.19,46.55,80.55,.18,.67-.22,1.36-.89,1.54-.11,.03-.22,.04-.33,.04Z"/><path class="cls-3" d="M510.45,376.37c-3.97,0-7.2-3.23-7.2-7.2s3.23-7.2,7.2-7.2,7.2,3.23,7.2,7.2-3.23,7.2-7.2,7.2Zm0-11.89c-2.59,0-4.69,2.1-4.69,4.69s2.1,4.69,4.69,4.69,4.69-2.1,4.69-4.69-2.1-4.69-4.69-4.69Z"/><path class="cls-3" d="M461.9,398.49c-3.71,0-6.73-3.02-6.73-6.73s3.02-6.73,6.73-6.73,6.73,3.02,6.73,6.73-3.02,6.73-6.73,6.73Zm0-10.95c-2.33,0-4.22,1.89-4.22,4.22s1.89,4.22,4.22,4.22,4.22-1.89,4.22-4.22-1.89-4.22-4.22-4.22Z"/><path class="cls-3" d="M514.91,410.07c-3.35,0-6.08-2.73-6.08-6.09s2.73-6.08,6.08-6.08,6.08,2.73,6.08,6.08-2.73,6.09-6.08,6.09Zm0-9.66c-1.97,0-3.57,1.6-3.57,3.57s1.6,3.57,3.57,3.57,3.57-1.6,3.57-3.57-1.6-3.57-3.57-3.57Z"/><path class="cls-3" d="M401.27,173.61c-3.27,0-5.92-2.66-5.92-5.92s2.66-5.92,5.92-5.92,5.92,2.66,5.92,5.92-2.66,5.92-5.92,5.92Zm0-9.34c-1.88,0-3.41,1.53-3.41,3.41s1.53,3.41,3.41,3.41,3.41-1.53,3.41-3.41-1.53-3.41-3.41-3.41Z"/><path class="cls-3" d="M459.92,169.16c-3.69,0-6.69-3-6.69-6.69s3-6.69,6.69-6.69,6.69,3,6.69,6.69-3,6.69-6.69,6.69Zm0-10.87c-2.3,0-4.18,1.88-4.18,4.18s1.88,4.18,4.18,4.18,4.18-1.88,4.18-4.18-1.88-4.18-4.18-4.18Z"/><path class="cls-3" d="M458.67,130.22c-2.9,0-5.26-2.36-5.26-5.26s2.36-5.26,5.26-5.26,5.26,2.36,5.26,5.26-2.36,5.26-5.26,5.26Zm0-8c-1.51,0-2.74,1.23-2.74,2.74s1.23,2.74,2.74,2.74,2.74-1.23,2.74-2.74-1.23-2.74-2.74-2.74Z"/></g><g><path class="cls-3" d="M514.73,534.23c-3.45,0-6.25-2.8-6.25-6.25s2.8-6.25,6.25-6.25,6.25,2.8,6.25,6.25-2.8,6.25-6.25,6.25Zm0-9.99c-2.06,0-3.74,1.68-3.74,3.74s1.68,3.74,3.74,3.74,3.74-1.68,3.74-3.74-1.68-3.74-3.74-3.74Z"/><g><g><circle class="cls-3" cx="322.5" cy="579.12" r="5.19"/><circle class="cls-3" cx="340.55" cy="579.12" r="4.58"/><circle class="cls-3" cx="355.64" cy="579.12" r="3.32"/><circle class="cls-3" cx="369.28" cy="579.12" r="2.49"/></g><g><path class="cls-3" d="M432.63,582.75c-.35,0-.69-.14-.93-.42-.36-.4-.42-.98-.17-1.44,5-9.07,22.76-30.51,79.4-33.71,.5-.04,.94,.23,1.17,.65,.23,.42,.2,.94-.08,1.34-11.97,16.75-29.87,20.7-48.82,24.87-9.9,2.18-20.14,4.44-30.09,8.62-.16,.07-.32,.1-.49,.1Zm75.72-32.89c-47.39,3.24-65.8,19.49-72.6,29.05,8.99-3.37,18.09-5.38,26.92-7.32,17.61-3.88,34.29-7.55,45.69-21.73Z"/><path class="cls-3" d="M431.96,580.44c4.58-2.74,9.2-5.41,13.97-7.77,4.74-2.42,9.59-4.63,14.5-6.67,9.82-4.09,19.88-7.56,30.23-10.13,.3-.07,.61,.11,.68,.41,.07,.3-.1,.6-.4,.68h-.02c-10.17,2.76-20.13,6.45-29.77,10.71-4.83,2.13-9.58,4.42-14.22,6.92-4.67,2.44-9.18,5.18-13.63,7.97l-.03,.02c-.59,.37-1.36,.19-1.73-.4-.37-.59-.19-1.36,.4-1.73,0,0,.02-.01,.02-.01Z"/><path class="cls-3" d="M389.22,583.94c-.5,0-.95-.29-1.15-.76-.22-.51-.08-1.1,.34-1.46,3.11-2.61,6.25-6.24,9.9-10.45,11.49-13.25,27.2-31.37,55.78-30.28,.52,.02,.98,.37,1.14,.86,.16,.5,0,1.04-.41,1.37-1.58,1.26-3.64,3.41-6.26,6.13-10.49,10.9-30,31.18-59.19,34.57-.05,0-.1,0-.14,0Zm61.61-40.48c-25.34,.3-39.31,16.41-50.62,29.46-2.48,2.86-4.86,5.61-7.18,7.94,26.13-4.57,43.94-23.08,53.72-33.24,1.53-1.6,2.88-3,4.08-4.16Z"/><path class="cls-3" d="M389.22,583.94c-.44,0-.87-.24-1.1-.65-.33-.61-.11-1.37,.5-1.71,11.43-6.28,23.57-14.71,34.27-22.15,13.13-9.12,24.46-16.99,30.88-18.41,.67-.15,1.35,.28,1.5,.95,.15,.68-.28,1.35-.96,1.5-5.93,1.31-17.08,9.06-29.99,18.02-10.76,7.47-22.95,15.94-34.5,22.29-.19,.11-.4,.15-.6,.15Z"/></g><path class="cls-3" d="M507.76,583.52c-3.79,0-6.88-3.08-6.88-6.87s3.08-6.88,6.88-6.88,6.88,3.08,6.88,6.88-3.08,6.87-6.88,6.87Zm0-11.24c-2.41,0-4.36,1.96-4.36,4.36s1.96,4.36,4.36,4.36,4.36-1.96,4.36-4.36-1.96-4.36-4.36-4.36Z"/></g></g><g><path class="cls-3" d="M22.72,534.23c-3.45,0-6.25-2.8-6.25-6.25s2.8-6.25,6.25-6.25,6.25,2.8,6.25,6.25-2.8,6.25-6.25,6.25Zm0-9.99c-2.06,0-3.74,1.68-3.74,3.74s1.68,3.74,3.74,3.74,3.74-1.68,3.74-3.74-1.68-3.74-3.74-3.74Z"/><g><g><circle class="cls-3" cx="214.95" cy="579.12" r="5.19"/><circle class="cls-3" cx="196.9" cy="579.12" r="4.58"/><circle class="cls-3" cx="181.82" cy="579.12" r="3.32"/><circle class="cls-3" cx="168.17" cy="579.12" r="2.49"/></g><g><path class="cls-3" d="M104.82,582.75c-.16,0-.33-.03-.49-.1-9.94-4.18-20.18-6.44-30.09-8.62-18.95-4.18-36.86-8.12-48.82-24.87-.28-.39-.31-.91-.08-1.34,.23-.42,.66-.69,1.17-.65,56.64,3.2,74.4,24.64,79.4,33.71,.26,.47,.19,1.05-.17,1.44-.24,.27-.58,.42-.93,.42Zm-75.72-32.89c11.4,14.17,28.08,17.85,45.69,21.73,8.83,1.94,17.93,3.95,26.92,7.32-6.8-9.56-25.21-25.81-72.6-29.05Z"/><path class="cls-3" d="M104.15,582.56c-4.45-2.8-8.96-5.53-13.63-7.97-4.64-2.5-9.39-4.79-14.22-6.92-9.64-4.26-19.6-7.95-29.77-10.7h-.02c-.3-.09-.48-.4-.4-.7,.08-.3,.38-.47,.68-.4,10.34,2.56,20.4,6.04,30.23,10.13,4.91,2.04,9.76,4.25,14.5,6.67,4.77,2.36,9.39,5.03,13.97,7.77,.6,.36,.79,1.13,.43,1.72-.36,.6-1.13,.79-1.72,.43,0,0-.01,0-.02-.01l-.03-.02Z"/><path class="cls-3" d="M148.23,583.94s-.1,0-.14,0c-29.19-3.39-48.71-23.68-59.2-34.57-2.62-2.72-4.68-4.87-6.26-6.13-.41-.33-.57-.88-.41-1.37,.16-.5,.62-.84,1.14-.86,28.52-1.1,44.29,17.03,55.77,30.28,3.65,4.21,6.79,7.84,9.9,10.45,.42,.36,.56,.95,.34,1.46-.2,.46-.66,.76-1.15,.76Zm-61.61-40.48c1.19,1.16,2.54,2.56,4.08,4.16,9.78,10.17,27.59,28.68,53.73,33.25-2.32-2.33-4.7-5.08-7.18-7.94-11.31-13.05-25.28-29.16-50.62-29.46Z"/><path class="cls-3" d="M148.23,583.94c-.2,0-.41-.05-.6-.15-11.55-6.34-23.74-14.81-34.5-22.29-12.91-8.97-24.05-16.71-29.99-18.02-.68-.15-1.1-.82-.96-1.5,.15-.67,.82-1.1,1.5-.95,6.42,1.42,17.75,9.3,30.88,18.41,10.71,7.44,22.84,15.87,34.27,22.15,.61,.33,.83,1.1,.5,1.71-.23,.41-.66,.65-1.1,.65Z"/></g><path class="cls-3" d="M29.69,583.52c-3.79,0-6.88-3.08-6.88-6.87s3.08-6.88,6.88-6.88,6.88,3.08,6.88,6.88-3.08,6.87-6.88,6.87Zm0-11.24c-2.41,0-4.36,1.96-4.36,4.36s1.96,4.36,4.36,4.36,4.36-1.96,4.36-4.36-1.96-4.36-4.36-4.36Z"/></g></g><g><path class="cls-3" d="M0,662.79H2.52c3.48,0,6.3-2.82,6.3-6.3v-31.37c0-3.96-3.21-7.17-7.17-7.17H0v-.3H21.37l11.89,34.97s2.56-1.96,4.1-13.8c1.55-11.83,4.76-21.17,7.02-21.17h15.4v.42h-.56c-3.43,0-6.21,2.78-6.21,6.21v31.04c0,4.12,3.34,7.46,7.46,7.46h.86v.77h-24.74v-.77h1.46c4.12,0,7.46-3.34,7.46-7.46v-27.38l-11.71,27.53c-8.27,0-9.57-1.96-10.88-6.66s-5.35-16-7.43-20.22-5.47-2.97-5.47,3.39,0-2.14,0,7.2,5.53,17.19,6.54,19.74-1.61,4.34-4.22,4.34H0v-.48Z"/><path class="cls-3" d="M59.78,617.65h27.09v.42h-2.64c-3.78,0-6.21,4.02-4.44,7.37l6.14,11.65c1.79,3.4,6.64,3.44,8.49,.07l1.49-2.72c1.52-2.63,1.93-9.46,.78-13.16h0c-1.03-1.55,.08-3.62,1.94-3.62h15.98v.65h-.41c-4.95,0-9.49,2.72-11.82,7.08l-12.64,25.03c-2.85,5.64,1.25,12.31,7.57,12.31h0v.89h-19.56l11.71-16.71h-7.37l-12-22.64c-2.02-3.81-5.99-6.2-10.3-6.2h0v-.42Z"/><path class="cls-3" d="M143.11,619.71s-.04,9.32-7.73,9.32c-6.03,0-6.59-11.35-12.85-11.35s-7.29,10.04-.59,14.44,14.87,9.63,18.71,13.12c1.73,1.57,3.34,5.52,2.46,9.4-1.08,4.75-5.82,9.4-14.97,9.4-7.81,0-14.25-3.61-17.46-3.61-4.08,0-5.23,1.78-5.23,1.78,0,0,.04-9.67,7.29-9.67s5.57,10.19,15.4,10.19c8.26,0,7.99-11.69,1.65-15.42-6.34-3.73-13.36-6.7-17.01-12.05s-1.11-18.63,9.51-18.63c8.92,0,15.98,6.82,20.81,3.09Z"/><path class="cls-3" d="M145.83,634.18h-.54v-16.77h38.3v16.77h-.59v-.89c-1.25-7.67-8.33-14.51-14.51-14.51h-.3v18.91c0,9.34-6.72,9.57-6.72,13.32s6.48,8.5,7.43,9.75,.06,2.5-3.27,2.5h-13.91v-.65h.13c4.69,0,8.49-3.8,8.49-8.49v-35.33h0c-7.37,.59-13.91,7.37-14.51,13.91v1.49Z"/><path class="cls-3" d="M247.04,640.96c-16.41-1.84-18.14-8.21-19.15-14.87s-7.08-10.64-12.07-5.77-6.42,21.43,3.33,31.02,24.1,6.5,29.42,0c0,0-5.23,13.15-19.66,13.15s-23.63-12.04-23.63-26.07,6.58-22.04,18.32-22.04,13,7.22,13.56,14.27,9.89,10.31,9.89,10.31Z"/><path class="cls-3" d="M302.2,650.44c.05,.3,.05,.6,.05,.9,0,10.8-9.74,13.16-16.32,13.16-14.44,0-22.6-12.05-21.94-26.09,.65-14.01,6.85-22.02,16.9-22.02,6.53,0,13.91,10.07,22.8,4.19,.23,2.99-1.03,5.8-2.54,8.08-2.31,3.39-7.23,3.84-9.92,.7-.93-1.08-1.83-2.36-2.61-3.87-3.11-6-8.49-10.07-13.48-5.17-5,4.87-7.41,21.92,2.36,31.51,6.35,6.25,14.49,7.53,21.27,5.45,3.06-.95-1.81-4.9-4.37-7.53t-.05-.05c-1.81-1.78-4.27-3.77-4.27-7.23s5.55-6.98,9.04-6.83c-4.09,4.09-.35,6.98,1.81,10.67,.05,.08,.1,.15,.15,.25,.23,.43,.45,.88,.63,1.36,.08,.2,.15,.4,.2,.6,.08,.28,.15,.55,.2,.85,.05,.28,.08,.55,.08,.83,.03,.08,.03,.15,.03,.23Z"/><path class="cls-3" d="M353.01,662.53c-4.1,0-7.72-2.65-8.97-6.54l-12.37-38.57h-9.52l-13.38,38.05c-1.49,4.23-5.48,7.06-9.97,7.06h-1.4v.91h16.06c1.72,0,3.21-3.69,3.51-9.22,.09-1.61,.08-4.74,.18-8.34h14.12c1.28,4.03,2.51,7.88,3.46,10.86,.91,2.87-1.23,5.79-4.25,5.79h-1.56v.91h24.08c.18,0,0-.91,0-.91Zm-35.81-18.04c.31-8.62,1.34-19.2,5.66-19.2,2.04,0,3.17,4.03,4.82,9.25,.99,3.12,2.08,6.57,3.16,9.95h-13.63Z"/><path class="cls-3" d="M388.67,651.19c-6.83-9.19-18.55-7.93-18.55-7.93,0,0,22.2-9.19,22.2-16.24s-8.49-9.59-17.35-9.59h-24.5v.7h2.56c3.36,0,6.1,2.74,6.1,6.1v32.19c0,1.71-.68,3.21-1.78,4.32s-2.64,1.78-4.32,1.78v.93h17.9s-10.37-9.72-10.37-12.05,1.23-6.88,7.33-6.88,8.18,3.26,11.42,9.14c3.26,5.85,7.38,9.79,13.48,9.79h5.62v-.6c-2.36,0-2.94-2.46-9.74-11.65Zm-21.37-8.36v-16.85c0-3.41,1.31-7.38,7.53-7.38s9.52,4.8,9.52,8.44-8.19,11.73-17.05,15.79Z"/><path class="cls-3" d="M189.68,660.73c-1.1,1.1-2.82,1.78-6.88,1.78v.93h25.09v-.93h0c-4.55,0-8.25-3.69-8.25-8.25v-11.44s0-13.46,0-16.85,1.31-7.38,7.53-7.38l.13-1.18h-24.5v.7h2.56c3.37,0,6.1,2.73,6.1,6.1v32.19c0,1.71-.68,3.21-1.78,4.32Z"/><path class="cls-3" d="M420.2,617.42h-23.5v.83c4.87,0,8.81,3.94,8.81,8.79v28.7c0,1.96-.8,3.74-2.08,5.02s-3.06,2.08-5.02,2.08v.6h24.18c17.05,0,21.52-11.85,21.52-24.98s-9.26-21.04-23.9-21.04Zm2.79,44.39c-8.08,0-16.5-14.19-16.5-20.84,0-13.11,9.69-22.3,15.94-22.3s13.63,11.5,13.63,22.3-5,20.84-13.08,20.84Z"/><path class="cls-3" d="M486.5,620.74s-.56,10.62-8.01,10.62-7.29-13.56-15.62-13.56-15.94,19.43-3.25,33.38,26.24,3.09,28.7,.56l.56,.63s-4.52,11.66-19.19,11.66-23.47-11.02-23.47-25.29,8.09-22.44,16.57-22.44,13.48,12.21,23.71,4.44Z"/><path class="cls-3" d="M453.52,642.39s2.09-4.8,6.45-4.8,8.3,11.31,14.72,11.31,8.96-7.53,8.96-7.53l-.56-.92c-5.15,5.58-13.06-6.61-20.2-6.61-8.8,0-11.52,10.15-11.52,10.15l2.14-1.59Z"/><path class="cls-3" d="M484.6,617.41h18.47l19.98,35.49c1.17,2.08,4.34,1.25,4.34-1.14v-8.68c0-2.54-.48-5.06-1.4-7.43l-4.92-13.47c-.85-2.32,.87-4.77,3.34-4.77h13.09v1.01h-3.67c-2.8,0-5.06,2.27-5.06,5.06v31.6c0,4.18,3.39,7.58,7.58,7.58h.83v.5h-13.34c-2.57,0-4.96-1.34-6.29-3.54l-19.06-31.41c-.94-1.65-3.45-.99-3.47,.9l-.07,7.4c-.03,3.57,.59,7.12,1.82,10.47l4.63,12.54c.66,1.78-.64,3.67-2.54,3.7l-14.25,.22v-.65h2.32c3.61,0,6.54-2.93,6.54-6.54v-30.65c0-3.92-3.18-7.11-7.11-7.11h-1.75v-1.07Z"/></g><path class="cls-2" d="M533.97,595.9H3.28V265.35C3.28,119.03,122.31,0,268.62,0s265.35,119.03,265.35,265.35v330.56Zm-525.67-5.02H528.95V265.35C528.95,121.8,412.17,5.02,268.62,5.02S8.3,121.8,8.3,265.35v325.53Z"/></g></g></svg>